<svg xmlns="http://www.w3.org/2000/svg" width="335" height="320" viewBox="0 0 335 320">
  <g id="Grupo_4" data-name="Grupo 4" transform="translate(-1181 -183)">
    <g id="Trazado_9" data-name="Trazado 9" transform="translate(1364.08 364) rotate(180)" fill="none">
      <path d="M0,0H31.08V48H0Z" stroke="none"/>
      <path d="M 3 3 L 3 45 L 28.07999992370605 45 L 28.07999992370605 3 L 3 3 M 0 0 L 31.07999992370605 0 L 31.07999992370605 48 L 0 48 L 0 0 Z" stroke="none" fill="#000"/>
    </g>
    <g id="Rectángulo_21" data-name="Rectángulo 21" transform="translate(1454 357) rotate(180)" fill="none" stroke="#000" stroke-width="3">
      <rect width="31.08" height="48" stroke="none"/>
      <rect x="1.5" y="1.5" width="28.08" height="45" fill="none"/>
    </g>
    <g id="Trazado_12" data-name="Trazado 12" transform="translate(1274.5 364) rotate(180)" fill="none">
      <path d="M1,0H31.085V48H0Z" stroke="none"/>
      <path d="M 3.938150405883789 3 L 3.063150405883789 45 L 28.08471870422363 45 L 28.08471870422363 3 L 3.938150405883789 3 M 0.9999980926513672 0 L 31.08471870422363 0 L 31.08471870422363 48 L -1.9073486328125e-06 48 L 0.9999980926513672 0 Z" stroke="none" fill="#000"/>
    </g>
    <g id="Rectángulo_17" data-name="Rectángulo 17" transform="translate(1454.08 231) rotate(180)" fill="none" stroke="#000" stroke-width="3">
      <rect width="31.08" height="48" stroke="none"/>
      <rect x="1.5" y="1.5" width="28.08" height="45" fill="none"/>
    </g>
    <g id="Trazado_7" data-name="Trazado 7" transform="translate(1454 503) rotate(180)" fill="none">
      <path d="M0,0H31.08V48H0Z" stroke="none"/>
      <path d="M 3 3 L 3 45 L 28.07999992370605 45 L 28.07999992370605 3 L 3 3 M 0 0 L 31.07999992370605 0 L 31.07999992370605 48 L 0 48 L 0 0 Z" stroke="none" fill="#000"/>
    </g>
    <g id="Trazado_10" data-name="Trazado 10" transform="translate(1364.08 503) rotate(180)" fill="none">
      <path d="M0,0H31.08V48H0Z" stroke="none"/>
      <path d="M 3 3 L 3 45 L 28.07999992370605 45 L 28.07999992370605 3 L 3 3 M 0 0 L 31.07999992370605 0 L 31.07999992370605 48 L 0 48 L 0 0 Z" stroke="none" fill="#000"/>
    </g>
    <g id="Trazado_8" data-name="Trazado 8" transform="translate(1364.08 228.5) rotate(180)" fill="none">
      <path d="M0,0H31.08V45.5H0Z" stroke="none"/>
      <path d="M 3 3 L 3 42.5 L 28.07999992370605 42.5 L 28.07999992370605 3 L 3 3 M 0 0 L 31.07999992370605 0 L 31.07999992370605 45.5 L 0 45.5 L 0 0 Z" stroke="none" fill="#000"/>
    </g>
    <g id="Trazado_11" data-name="Trazado 11" transform="translate(1274.5 503) rotate(180)" fill="none">
      <path d="M0,0H31.085V48H0Z" stroke="none"/>
      <path d="M 2.999998092651367 3 L 2.999998092651367 45 L 28.08471870422363 45 L 28.08471870422363 3 L 2.999998092651367 3 M -1.9073486328125e-06 0 L 31.08471870422363 0 L 31.08471870422363 48 L -1.9073486328125e-06 48 L -1.9073486328125e-06 0 Z" stroke="none" fill="#000"/>
    </g>
    <g id="Trazado_13" data-name="Trazado 13" transform="translate(1274.5 228.5) rotate(180)" fill="none">
      <path d="M0,0H31.085V45.5H0Z" stroke="none"/>
      <path d="M 2.999998092651367 3 L 2.999998092651367 42.5 L 28.08471870422363 42.5 L 28.08471870422363 3 L 2.999998092651367 3 M -1.9073486328125e-06 0 L 31.08471870422363 0 L 31.08471870422363 45.5 L -1.9073486328125e-06 45.5 L -1.9073486328125e-06 0 Z" stroke="none" fill="#000"/>
    </g>
    <g id="Trazado_6" data-name="Trazado 6" transform="translate(1451 183)" fill="none">
      <path d="M0,0H65V320H0Z" stroke="none"/>
      <path d="M 4 4 L 4 316 L 61 316 L 61 4 L 4 4 M 0 0 L 65 0 L 65 320 L 0 320 L 0 0 Z" stroke="none" fill="#000"/>
    </g>
    <g id="Trazado_5" data-name="Trazado 5" transform="translate(1361 183)" fill="none">
      <path d="M0,0H65V320H0Z" stroke="none"/>
      <path d="M 4 4 L 4 316 L 61 316 L 61 4 L 4 4 M 0 0 L 65 0 L 65 320 L 0 320 L 0 0 Z" stroke="none" fill="#000"/>
    </g>
    <g id="Trazado_4" data-name="Trazado 4" transform="translate(1272 183)" fill="none">
      <path d="M0,0H65V320H0Z" stroke="none"/>
      <path d="M 4 4 L 4 316 L 61 316 L 61 4 L 4 4 M 0 0 L 65 0 L 65 320 L 0 320 L 0 0 Z" stroke="none" fill="#000"/>
    </g>
    <g id="Rectángulo_13" data-name="Rectángulo 13" transform="translate(1181 183)" fill="none" stroke="#000" stroke-width="4">
      <rect width="65" height="320" stroke="none"/>
      <rect x="2" y="2" width="61" height="316" fill="none"/>
    </g>
  </g>
</svg>
