<svg version="1.1" id="Layer_1" xmlns="http://www.w3.org/2000/svg" xmlns:xlink="http://www.w3.org/1999/xlink" x="0px" y="0px"
	 width="100%" viewBox="0 0 752 704" enable-background="new 0 0 752 704" xml:space="preserve">
<path fill="#000000" opacity="1.000000" stroke="none" 
	d="
M652.300293,346.000061 
	C652.300598,437.819641 652.301941,529.139221 652.299500,620.458801 
	C652.299255,630.649719 650.631165,632.304810 640.403809,632.304871 
	C503.757721,632.305237 367.111633,632.304688 230.465530,632.300903 
	C228.466354,632.300842 226.454742,632.389587 224.470596,632.204529 
	C220.400696,631.825012 218.168869,629.418884 217.765671,625.421448 
	C217.565826,623.440308 217.676727,621.426025 217.676651,619.426758 
	C217.672379,514.609192 217.671890,409.791656 217.668579,304.974121 
	C217.668320,296.942871 217.660019,296.951508 209.389847,296.952026 
	C175.395004,296.954132 141.384857,296.338318 107.411255,297.187195 
	C88.180534,297.667633 82.314056,287.537506 78.926529,273.503326 
	C77.994568,269.642303 77.681931,265.644531 77.684769,261.610138 
	C77.729927,197.453171 77.703636,133.296143 77.697945,69.139122 
	C77.697098,59.536152 79.502403,57.710690 88.986115,57.710636 
	C272.791779,57.709595 456.597473,57.710133 640.403137,57.712189 
	C650.658081,57.712303 652.306946,59.352654 652.306885,69.543022 
	C652.305847,161.528687 652.302673,253.514359 652.300293,346.000061 
M250.218079,239.216797 
	C285.622955,260.447906 321.027832,281.679016 357.608093,303.614960 
	C357.608093,300.201447 357.608917,298.573547 357.607971,296.945679 
	C357.597748,279.133636 357.435699,261.319489 357.683319,243.511017 
	C357.745300,239.051620 356.139160,236.625259 352.426331,234.413132 
	C314.254303,211.669968 276.179779,188.763153 238.057785,165.935822 
	C236.715302,165.131927 235.442261,163.767990 233.506866,164.498535 
	C233.363541,164.979309 233.101746,165.449524 233.100510,165.920425 
	C233.049240,185.395752 233.039581,204.871201 232.967270,224.346436 
	C232.958282,226.762405 234.125183,228.344879 235.811188,229.869934 
	C239.936554,233.601395 244.998535,235.854721 250.218079,239.216797 
M582.028748,270.400879 
	C599.939026,281.138824 617.849304,291.876770 635.779846,302.626862 
	C637.313660,300.109558 636.907104,298.233429 636.910095,296.448975 
	C636.939819,278.783112 636.781250,261.115356 637.009521,243.452454 
	C637.066101,239.075134 635.696106,236.548325 631.888977,234.280472 
	C593.814209,211.599716 555.858521,188.718964 517.848267,165.929657 
	C516.361816,165.038437 514.943909,163.614029 512.745789,164.305191 
	C512.631165,164.948318 512.418579,165.587677 512.417480,166.227386 
	C512.384216,185.893036 512.424561,205.559036 512.300964,225.224030 
	C512.281616,228.298050 514.006470,229.634781 516.239258,230.970490 
	C537.971069,243.971008 559.683960,257.003052 582.028748,270.400879 
M232.917740,467.483826 
	C232.919937,468.815643 233.089722,470.172394 232.896072,471.475098 
	C231.920090,478.040802 234.561050,481.876923 240.451462,485.337311 
	C274.888214,505.567749 309.010681,526.332458 343.316528,546.787231 
	C347.647675,549.369629 351.710449,552.594299 356.468506,554.180054 
	C357.981110,552.548340 357.571014,550.975159 357.572876,549.536011 
	C357.596375,531.392456 357.472870,513.247986 357.646667,495.106201 
	C357.686737,490.926208 356.222656,488.460541 352.638489,486.323181 
	C314.756256,463.732971 276.967468,440.986084 239.130539,418.319824 
	C237.489548,417.336761 235.947296,415.886261 232.917252,416.242798 
	C232.917252,432.984436 232.917252,449.737183 232.917740,467.483826 
M261.649872,347.914825 
	C252.468796,342.437653 243.287704,336.960480 233.529251,331.138855 
	C233.244080,333.386902 233.015167,334.357452 233.013428,335.328400 
	C232.979431,354.308319 233.057571,373.289032 232.887115,392.267578 
	C232.852722,396.096832 234.833282,397.872955 237.721008,399.600922 
	C275.997284,422.505066 314.233276,445.476624 352.502380,468.392822 
	C353.842224,469.195099 355.092194,470.534485 357.584595,469.897980 
	C357.584595,467.875946 357.585052,465.751434 357.584534,463.626923 
	C357.580231,446.311798 357.429596,428.994659 357.669434,411.682922 
	C357.733002,407.097595 356.161987,404.461823 352.245270,402.138336 
	C322.185272,384.306183 292.246674,366.269440 261.649872,347.914825 
M252.775635,90.789955 
	C246.537781,87.114143 240.299942,83.438332 234.058136,79.760201 
	C232.781433,81.557457 233.007111,82.913216 233.005859,84.209167 
	C232.988098,102.523170 233.081238,120.838158 232.900421,139.150467 
	C232.859375,143.309280 234.267883,145.785080 237.881577,147.940948 
	C275.046051,170.112625 312.104401,192.462234 349.218475,214.718613 
	C351.574249,216.131317 353.811035,217.925598 356.784851,218.436874 
	C357.888031,216.735153 357.585236,215.038116 357.586639,213.433807 
	C357.601929,195.789062 357.412476,178.141556 357.690216,160.501282 
	C357.767914,155.565659 356.239685,152.733047 351.925659,150.176544 
	C318.992523,130.660156 286.219147,110.874199 252.775635,90.789955 
M636.952393,213.115250 
	C636.942688,195.789764 636.645508,178.457031 637.082947,161.142838 
	C637.231323,155.267441 635.059570,152.187302 630.259766,149.338501 
	C596.604858,129.363266 563.097839,109.138771 529.528992,89.018394 
	C524.179626,85.812065 518.756714,82.728348 512.352295,78.996170 
	C512.352295,82.007919 512.352295,83.786942 512.352234,85.565964 
	C512.351807,103.391258 512.483276,121.218254 512.254700,139.040619 
	C512.200134,143.294540 513.740479,145.629364 517.297546,147.749680 
	C555.352417,170.433563 593.314819,193.272446 631.317749,216.043594 
	C632.820801,216.944183 634.190125,218.398224 636.286804,217.866562 
	C637.126831,216.653946 636.876282,215.290451 636.952393,213.115250 
M622.148193,396.402618 
	C585.954773,374.695251 549.761414,352.987915 513.842224,331.445007 
	C512.182678,332.882751 512.383423,333.945526 512.382080,334.907043 
	C512.354919,354.237061 512.415405,373.567596 512.279724,392.896759 
	C512.256531,396.197052 514.120850,397.555695 516.502441,398.981018 
	C554.810791,421.907227 593.095520,444.872894 631.401917,467.802429 
	C632.906738,468.703186 634.279480,470.148773 636.374512,469.662170 
	C637.303284,467.731720 636.923828,465.707367 636.927063,463.748199 
	C636.950317,449.750610 635.957825,435.666840 637.196960,421.780823 
	C638.313721,409.266632 634.778992,400.977661 622.148193,396.402618 
M624.677124,481.876068 
	C587.646240,459.649567 550.615417,437.423065 513.632507,415.225372 
	C511.936249,417.573792 512.379578,419.297485 512.375916,420.904327 
	C512.335083,438.899017 512.475647,456.895386 512.253418,474.887421 
	C512.202942,478.974274 513.716492,481.244904 517.074646,483.250671 
	C555.257324,506.056732 593.372192,528.976379 631.522888,551.835938 
	C633.011475,552.727905 634.371765,554.229492 636.940430,553.437622 
	C636.940430,551.892822 636.940796,550.257996 636.940369,548.623230 
	C636.936523,533.294373 636.214233,517.920044 637.180359,502.652557 
	C637.826660,492.438385 635.104980,485.664764 624.677124,481.876068 
M610.201233,305.332886 
	C577.944885,285.987030 545.688538,266.641174 512.348389,246.645294 
	C512.348389,250.198593 512.348694,252.006638 512.348328,253.814682 
	C512.345276,271.472687 512.466431,289.132202 512.247742,306.787567 
	C512.195740,310.982635 513.581421,313.391205 517.186707,315.539215 
	C555.101501,338.128815 592.914246,360.889740 630.771729,383.575714 
	C632.429382,384.569092 633.971130,386.008331 636.448364,385.732880 
	C636.594849,384.969421 636.870972,384.198975 636.871826,383.428192 
	C636.893433,363.937927 636.835632,344.447388 636.933289,324.957581 
	C636.949646,321.699951 635.031372,320.198242 632.688782,318.795074 
	C625.402649,314.430939 618.110291,310.077362 610.201233,305.332886 
M497.061249,296.496307 
	C497.061249,280.428101 497.061249,264.359894 497.061249,248.554581 
	C494.666199,247.817841 493.645935,248.877045 492.554718,249.531174 
	C453.862030,272.724884 415.196564,295.964050 376.474243,319.108032 
	C373.558716,320.850616 372.338196,322.904938 372.368774,326.336304 
	C372.512756,342.488617 372.357025,358.643585 372.493958,374.796051 
	C372.525177,378.483246 372.281097,382.317383 373.687744,385.766388 
	C375.556885,385.910828 376.588776,384.967316 377.707428,384.296509 
	C413.118408,363.061981 448.264648,341.365570 484.091003,320.857239 
	C494.127991,315.111725 499.212921,308.902832 497.061249,296.496307 
M178.614731,168.060745 
	C190.327362,161.033051 201.996841,153.931686 213.782654,147.028946 
	C216.763992,145.282822 217.757828,143.107910 217.732376,139.725952 
	C217.594452,121.397484 217.680542,103.067421 217.629578,84.738060 
	C217.625214,83.169289 218.196701,81.394646 216.605011,79.893181 
	C215.881592,80.154015 215.055603,80.310272 214.379211,80.715965 
	C175.240417,104.191139 136.128311,127.710899 96.957855,151.133072 
	C93.986641,152.909729 92.997467,155.105087 93.019760,158.459595 
	C93.140488,176.621643 93.057404,194.784958 93.113792,212.947632 
	C93.119125,214.665237 92.512840,216.632996 94.630714,218.434875 
	C122.349792,201.805420 150.167419,185.116837 178.614731,168.060745 
M372.438751,443.932587 
	C372.828125,452.502106 372.021301,461.134552 373.324036,469.491089 
	C375.107300,470.082642 376.018616,469.179138 376.980927,468.603149 
	C415.721497,445.415924 454.436829,422.186523 493.212708,399.058655 
	C496.225342,397.261780 497.079712,394.975769 497.064087,391.670776 
	C496.978210,373.506226 497.070374,355.340942 497.038696,337.175995 
	C497.035675,335.445465 497.566101,333.503082 496.036682,332.042725 
	C494.141693,332.017303 492.893250,333.247589 491.500885,334.078064 
	C480.484711,340.648407 469.496765,347.266174 458.495178,353.861084 
	C431.060516,370.306763 403.635681,386.768890 376.166565,403.156860 
	C373.603210,404.686127 372.525238,406.438843 372.567871,409.566925 
	C372.719879,420.722717 372.509460,431.883392 372.438751,443.932587 
M372.440094,279.904480 
	C372.702820,287.242188 371.633026,294.683594 373.732513,302.424469 
	C375.596222,301.458832 376.940857,300.851227 378.198120,300.097778 
	C416.475739,277.159668 454.733582,254.188538 493.037292,231.294113 
	C495.958710,229.547989 497.070496,227.357742 497.051178,223.973999 
	C496.945557,205.486771 497.036438,186.998459 497.009827,168.510605 
	C497.007782,167.094131 497.412964,165.494614 496.099915,164.303070 
	C494.211823,164.052078 492.991913,165.372864 491.614014,166.196320 
	C481.466095,172.260895 471.359406,178.394363 461.218262,184.470291 
	C433.082428,201.327362 404.937744,218.169754 376.790924,235.008484 
	C374.473083,236.395126 372.558411,237.605621 372.606476,241.049011 
	C372.783081,253.696289 372.534058,266.349518 372.440094,279.904480 
M392.710205,477.271332 
	C387.133514,480.605621 381.563660,483.951355 375.976471,487.267975 
	C374.034943,488.420502 372.611115,489.671753 372.615509,492.311829 
	C372.640991,507.635620 372.434845,522.959900 372.481567,538.283508 
	C372.497375,543.460205 373.022766,548.635315 373.347534,554.382385 
	C375.449799,553.296997 376.655945,552.756104 377.781738,552.081238 
	C416.220642,529.037109 454.635101,505.952179 493.117004,482.980194 
	C496.117462,481.189117 497.071045,478.988098 497.054749,475.658020 
	C496.966736,457.660706 497.064056,439.662537 497.031525,421.664795 
	C497.028107,419.764862 497.580414,417.667267 495.569702,415.524353 
	C461.518402,435.971344 427.430267,456.440430 392.710205,477.271332 
M376.749146,217.018143 
	C415.179199,193.964874 453.585876,170.872467 492.077759,147.922958 
	C495.667236,145.782867 497.099518,143.289490 497.061920,139.109970 
	C496.901581,121.281052 497.057129,103.449448 497.037231,85.618889 
	C497.035278,83.865616 497.515717,81.960144 496.227814,80.361862 
	C494.274902,79.976166 493.103546,81.418793 491.741638,82.232574 
	C474.724182,92.400574 457.744324,102.631477 440.739075,112.819969 
	C419.589691,125.491379 398.415314,138.121231 377.284119,150.822861 
	C375.240631,152.051163 372.624054,152.844269 372.625610,156.089005 
	C372.632721,170.901535 372.522430,185.714142 372.536133,200.526657 
	C372.540588,205.351227 372.794342,210.175552 372.931732,215.000046 
	C372.993683,217.175598 373.453400,218.800720 376.749146,217.018143 
M636.012512,572.985901 
	C634.950928,572.191650 633.949585,571.297058 632.818909,570.617798 
	C594.547729,547.629272 556.269348,524.652710 517.963318,501.722290 
	C516.490112,500.840393 515.061829,499.398560 513.035034,500.013702 
	C511.948486,501.602753 512.374878,503.321136 512.371582,504.935028 
	C512.334656,522.931030 512.481140,540.928772 512.250977,558.921814 
	C512.198242,563.046753 513.813293,565.260376 517.140747,567.243347 
	C543.757019,583.105103 570.302612,599.085510 596.858826,615.047974 
	C598.446228,616.002136 600.004700,616.932190 601.932251,616.932373 
	C612.262939,616.933350 622.593628,616.931152 632.924316,616.945496 
	C635.219604,616.948730 636.898132,616.240051 636.868347,613.590149 
	C636.718506,600.277893 637.493896,586.955994 636.012512,572.985901 
M284.773560,595.670593 
	C295.336853,602.023682 305.914642,608.352905 316.451538,614.749512 
	C318.637085,616.076294 320.836090,617.009644 323.461029,616.994446 
	C333.125214,616.938354 342.791504,616.870483 352.453583,617.022888 
	C356.360992,617.084534 357.724579,615.545776 357.657867,611.681885 
	C357.479523,601.353882 357.213470,591.001160 357.744843,580.697571 
	C358.039215,574.989563 355.828186,572.037476 351.160767,569.264771 
	C313.637817,546.973816 276.252808,524.450745 238.810501,502.023926 
	C237.298904,501.118530 235.934830,499.694977 233.970016,500.016357 
	C232.795166,500.940735 232.994080,502.178802 232.993057,503.303864 
	C232.975937,522.299316 233.036819,541.295044 232.934906,560.289978 
	C232.917328,563.567688 234.294098,565.391357 237.016113,567.006226 
	C252.774582,576.355042 268.440826,585.859375 284.773560,595.670593 
M492.736816,567.097412 
	C496.140503,565.694336 497.065125,563.118958 497.042053,559.538208 
	C496.925079,541.395447 497.042542,523.251282 497.020203,505.107605 
	C497.018066,503.370789 497.529419,501.430420 495.992188,499.984009 
	C494.083374,499.853577 492.832733,501.083221 491.443237,501.916656 
	C481.454071,507.907898 471.498901,513.955811 461.507080,519.942627 
	C433.243988,536.876953 404.966400,553.787109 376.702545,570.720215 
	C374.739441,571.896240 372.556824,572.797058 372.564209,575.779236 
	C372.593506,587.588745 372.561401,599.399475 372.405243,611.207764 
	C372.348969,615.460388 374.054504,617.117798 378.377594,617.011841 
	C387.194122,616.795654 396.021545,616.890808 404.841797,617.029236 
	C408.135284,617.080872 410.976959,616.253784 413.791748,614.555237 
	C439.866516,598.821106 465.989014,583.166016 492.736816,567.097412 
M345.956390,314.578186 
	C313.107880,294.867157 280.259338,275.156128 246.863998,255.116959 
	C246.660934,267.725525 246.746002,279.619415 238.774841,288.505096 
	C233.735107,294.123016 232.706619,299.652924 232.790909,306.480713 
	C232.847092,311.030762 234.361572,313.714661 238.281418,316.046906 
	C272.924286,336.658966 307.451263,357.465790 342.024902,378.194366 
	C346.806213,381.060974 351.655182,383.814758 356.697296,386.751526 
	C357.877502,384.325348 357.585052,382.479889 357.587616,380.702850 
	C357.609741,365.373260 356.970978,350.008240 357.829529,334.726837 
	C358.373871,325.038177 356.087402,318.287994 345.956390,314.578186 
M162.500046,281.590424 
	C181.644196,281.440552 200.793762,280.991089 219.929001,281.335724 
	C225.207855,281.430786 227.618088,279.528748 229.176895,275.170288 
	C232.499161,265.881226 232.253326,256.584076 229.304291,247.263123 
	C227.868332,242.724564 225.130371,240.840118 220.073853,240.874420 
	C188.269043,241.090240 156.462051,240.973373 124.655853,241.016312 
	C122.562805,241.019135 120.343964,240.553482 117.877983,242.124832 
	C122.218132,254.910385 121.883682,267.955994 117.636421,281.059448 
	C132.880936,282.011841 147.195679,281.410400 162.500046,281.590424 
M286.378296,93.042084 
	C309.709198,107.025696 333.040100,121.009308 357.575653,135.714935 
	C357.575653,131.885986 357.575714,129.598526 357.575653,127.311073 
	C357.575256,111.145630 357.389191,94.976761 357.687256,78.816826 
	C357.776978,73.953049 355.959808,72.949448 351.583771,72.989136 
	C332.753479,73.159966 313.920593,73.046768 295.088654,73.041428 
	C281.511444,73.037575 267.934235,73.040672 253.111298,73.040672 
	C264.699677,80.015274 275.222443,86.348541 286.378296,93.042084 
M217.670273,205.499252 
	C217.670273,191.653091 217.670273,177.806931 217.670273,162.691284 
	C182.550598,183.781631 148.825775,204.034332 115.100952,224.287033 
	C116.794907,225.080322 118.235718,225.070023 119.676338,225.081879 
	C138.975006,225.240646 158.273453,225.437134 177.572372,225.550476 
	C189.050049,225.617889 200.529922,225.450974 212.005814,225.607529 
	C216.119080,225.663651 218.168091,224.602631 217.754700,219.977798 
	C217.356049,215.517853 217.669312,210.994278 217.670273,205.499252 
M466.361053,73.094086 
	C437.198151,73.083733 408.035278,73.081314 378.872375,73.051666 
	C375.699707,73.048439 373.020691,73.008308 372.820404,77.530693 
	C372.097321,93.857864 372.449585,110.182617 372.633881,126.506165 
	C372.660736,128.884918 372.377106,131.497314 374.178772,134.618103 
	C407.763794,114.472580 441.245758,94.388885 474.727692,74.305191 
	C474.564972,73.900955 474.402222,73.496727 474.239471,73.092491 
	C471.926392,73.092491 469.613312,73.092491 466.361053,73.094086 
M554.434814,86.026001 
	C581.498535,102.250519 608.562256,118.475029 635.814636,134.812637 
	C637.229248,132.330597 636.950928,130.479187 636.951294,128.703262 
	C636.954773,112.375412 636.933960,96.047554 636.909668,79.719711 
	C636.899780,73.105309 636.887878,73.087250 630.214905,73.084610 
	C599.558472,73.072479 568.902100,73.071304 538.245667,73.066238 
	C536.889038,73.066010 535.532410,73.066216 532.879883,73.066216 
	C540.699829,77.766907 547.256042,81.707932 554.434814,86.026001 
M104.530685,73.068642 
	C103.197372,73.065636 101.864044,73.057220 100.530746,73.060524 
	C93.081909,73.079002 93.075378,73.079971 93.076195,80.493767 
	C93.077934,96.326904 93.053741,112.160217 93.134529,127.992973 
	C93.144913,130.028183 92.422119,132.323334 94.665886,134.519333 
	C128.027969,114.488525 161.428940,94.434380 194.829895,74.380234 
	C194.678192,73.943443 194.526474,73.506660 194.374756,73.069870 
	C164.756531,73.069870 135.138321,73.069870 104.530685,73.068642 
M563.091553,616.997498 
	C564.804810,616.900085 566.518127,616.802673 569.644287,616.624939 
	C550.054443,604.902405 531.782532,593.968506 512.331055,582.328735 
	C512.331055,593.044250 512.539490,602.017822 512.244202,610.974792 
	C512.093811,615.537476 513.584534,617.142273 518.203552,617.072876 
	C532.865295,616.852539 547.532349,616.987549 563.091553,616.997498 
M266.499969,616.990601 
	C273.735565,616.990601 280.971130,616.990601 288.206726,616.990601 
	C288.299622,616.587341 288.392517,616.184143 288.485413,615.780884 
	C270.391602,604.939270 252.297775,594.097656 233.046036,582.562256 
	C233.046036,593.995605 233.010971,603.782532 233.065399,613.568970 
	C233.084000,616.912415 235.564987,616.985596 238.013474,616.984924 
	C247.175644,616.982361 256.337830,616.988892 266.499969,616.990601 
M493.146729,616.948486 
	C496.675598,617.041138 497.087616,614.748169 497.071594,611.976318 
	C497.029358,604.667419 497.116669,597.357422 497.036835,590.049133 
	C497.014343,587.992065 497.652191,585.730652 495.492523,583.419800 
	C477.509003,594.219421 459.493805,605.038086 441.478607,615.856689 
	C441.630951,616.226746 441.783264,616.596802 441.935608,616.966858 
	C458.697632,616.966858 475.459625,616.966858 493.146729,616.948486 
M105.201546,255.280136 
	C104.144188,250.265320 103.934952,244.849213 99.258453,241.445724 
	C91.964737,246.522705 91.468269,269.242035 96.158485,277.108612 
	C96.910538,278.369995 97.333527,280.128021 99.036743,280.233429 
	C101.061302,280.358704 101.733589,278.473175 102.384216,277.019684 
	C105.366066,270.358276 106.186905,263.355408 105.201546,255.280136 
z"/>
</svg>