<svg xmlns="http://www.w3.org/2000/svg" width="353.305" height="354.227" viewBox="0 0 353.305 354.227">
  <g id="persianas-hogar" transform="translate(-16.027 -8.593)">
    <path id="Trazado_15" data-name="Trazado 15" d="M371.856,116.59l.362,6.263c1.928.51,3.791,1.029,5.67,1.49a2.8,2.8,0,0,1,2.451,2.773c.37,4.133.962,8.246,1.39,12.374.214,2.061-.889,3.057-2.928,2.689s-4.047-.857-5.979-1.274c0,3.1-.045,6.12.056,9.138.013.379.739.954,1.221,1.065,6,1.388,4.779.681,5.98,6.41.6,2.852,1.08,5.728,1.587,8.6.373,2.108-.711,3.246-2.846,2.95-1.8-.249-3.577-.59-5.518-.915v6.964a26.093,26.093,0,0,1,4.466.907,3.7,3.7,0,0,1,2.158,2.038c.925,4.037,1.646,8.126,2.3,12.219.35,2.185-.677,3.118-2.937,2.9-1.8-.175-3.6-.436-5.447-.666v6.141c2.06.241,3.969.582,5.889.658,2.005.079,3.048.827,3.356,2.933.551,3.778,1.366,7.517,2.045,11.278.412,2.283-.482,3.27-2.846,3.149-2.577-.133-5.152-.3-7.728-.459v6.654c1.4,0,2.632-.006,3.859,0a2.544,2.544,0,0,1,2.818,2.346c.677,3.9,1.462,7.776,2.126,11.675.416,2.44-.424,3.375-2.9,3.406-1.811.022-3.623,0-5.416,0v7.633c1.467,0,2.687,0,3.907,0a2.262,2.262,0,0,1,2.426,2.055c.771,4.143,1.548,8.286,2.263,12.439.286,1.663-.6,2.725-2.375,2.818-1.8.095-3.618.021-5.535.021V271.1c.938-.079,1.748-.131,2.554-.22,1.775-.2,2.834.467,3.152,2.326.677,3.962,1.448,7.907,2.156,11.864.345,1.927-.413,2.909-2.419,3.165-1.663.213-3.331.379-5,.567v10.033c1.524-.186,2.838-.34,4.15-.508a2.194,2.194,0,0,1,2.785,1.98c.753,4.144,1.539,8.281,2.282,12.427.3,1.667-.509,2.557-2.127,2.855q-17.878,3.294-35.752,6.608-18.342,3.411-36.678,6.854c-9.366,1.741-18.74,3.442-28.108,5.174q-22.844,4.224-45.686,8.463c-12.3,2.272-24.608,4.506-36.906,6.789-12.23,2.271-24.45,4.6-36.679,6.871-9.366,1.742-18.743,3.427-28.11,5.16q-22.842,4.226-45.679,8.482-11.85,2.2-23.7,4.384c-1.887.344-2.9-.421-3-2.323-.425-8.363-.8-16.729-1.189-25.094a2.239,2.239,0,0,1,2.186-2.646c2.171-.29,4.328-.682,6.335-1.005V325.27c-1.711.177-3.094.357-4.483.456-2.024.145-2.751-.451-2.855-2.5-.419-8.3-.791-16.6-1.184-24.9-.084-1.782.792-2.62,2.536-2.723,1.807-.106,3.611-.282,5.56-.439V281.424c-1.363.07-2.756.15-4.148.211-1.712.074-2.694-.643-2.776-2.462-.377-8.366-.783-16.731-1.17-25.1a2.2,2.2,0,0,1,2.422-2.6c1.868-.031,3.737-.007,5.711-.007V240.785c-1.549,0-3.025,0-4.5,0a2.193,2.193,0,0,1-2.46-2.363c-.388-8.365-.8-16.73-1.163-25.1-.084-1.935.706-2.628,2.735-2.638,1.867-.009,3.734,0,5.622,0v-6.818c-2.476-.442-4.826-.829-7.162-1.287s-4.144-1.516-4.327-4.218a1.208,1.208,0,0,0-.221-.53c-.06-.094-.2-.137-.38-.25-.395,2.51-.819,4.976-1.136,7.456a1.883,1.883,0,0,0,.6,1.267,8.365,8.365,0,0,1,2.024,8.468c-.788,3.013-2.961,4.9-5.372,4.786-2.365-.114-4.643-2.266-5.136-5.127-.568-3.3-.121-6.34,2.731-8.617a2.461,2.461,0,0,0,.735-1.451c1.9-12.238,3.591-24.438,3.505-36.928-.288-41.7-.12-83.4-.071-125.1,0-1.814-.417-2.721-2.29-3.266C49.6,37.9,45.653,36.419,41.674,35.043c-2.581-.892-2.99-2.514-1.136-4.5,2.748-2.942,5.455-5.926,8.322-8.748A7.54,7.54,0,0,1,51.9,20.5a9.835,9.835,0,0,1,1.744-.039c9.934-1.1,19.212,1.88,28.583,4.456q44.763,12.3,89.563,24.47,52.445,14.348,104.879,28.737Q330.345,92.8,384.05,107.389a5.386,5.386,0,0,1,3.475,2.51c1.487,2.434,3.2,4.733,4.633,7.195a3.409,3.409,0,0,1,.362,2.8,3.463,3.463,0,0,1-2.6,1.136q-7.011.164-14.027-.006a3.329,3.329,0,0,1-2.529-1.218c-.382-.742.113-1.936.256-3.2-.081-.02-.622-.155-1.362-.385a.512.512,0,0,0-.4.364m-25.234,4.1c-.355-.093-.71-.186-1.375-.384-1.389-.266-2.778-.532-4.294-.8-.085,0-.17,0-.253-.326-1.019-.294-2.039-.587-3.043-.858,0,0,.014-.027-.253-.08-2.992-.751-5.985-1.5-9.124-2.423a6.591,6.591,0,0,1-.927-.226q-11.921-3.152-23.841-6.3-61.373-16.3-122.745-32.606-55.779-14.8-111.573-29.535a7.079,7.079,0,0,0-1.128-.108V66.123a17.738,17.738,0,0,1,3.3-.644,6.5,6.5,0,0,1,2.573.7c.805.363,1.452,1.188,2.272,1.388C82,68.979,87.815,70.277,93.621,71.619q38.045,8.8,76.089,17.6Q216.361,100.043,263,110.9q39.457,9.153,78.924,18.258,12.862,2.974,25.725,5.941l-.164-.534c1-.473,2.191-1.527,2.957-1.277,1.02.331,1.71,1.677,2.541,2.587l-.346.391,4.317.937c-.281-2.762-.468-5.267-.844-7.744a2.133,2.133,0,0,0-1.347-1.293,7.747,7.747,0,0,0-4.252-.3c-1.072.259-2.537-1.111-4.024-1.977-.621-.161-1.241-.325-1.862-.482-4.664-1.178-9.329-2.354-14.281-3.7-1.873-.569-1.873-.569-2.452.148-.187.01-.374.021-.309-.3a9.485,9.485,0,0,0-.965-.86M62.25,194.266c.937,4.056.936,4.063,5.029,4.64.875.123,1.759.177,2.718.271v-2.8c-1.576-.123-3.036-.292-4.5-.335-1.437-.043-2.291-.688-2.535-2.426q-.576-12.35-1.145-24.7c-.106-2.382.768-3.167,3.154-2.939,1.648.158,3.294.344,5.159.541v-11.84c-1.843-.243-3.7-.511-5.561-.725a2.439,2.439,0,0,1-2.438-2.677c-.335-8.107-.749-16.21-1.1-24.316-.112-2.588.484-3.139,3.438-3.061a21.709,21.709,0,0,1,2.709.468l2.77.431a14.49,14.49,0,0,1,.066-1.573v-9.4a67.539,67.539,0,0,1-6.628-2,7.138,7.138,0,0,1-.436-1.608c-.385-8.227-.749-16.455-1.171-24.681a2.5,2.5,0,0,1,2.313-2.992,19.857,19.857,0,0,1,2.657.574c.965.163,1.929.325,3.1.536.03-.125.061-.251.161-.736-.022-3.647-.043-7.295.012-11.246.043-1.741-1.455-1.045-2.516-1.573-3.983-.852-4.032-.908-4.029-4.943,0-7.257.012-14.513.214-21.967a8.726,8.726,0,0,1,1.765-1.472,3.812,3.812,0,0,1,1.228.185,13.887,13.887,0,0,1,1.529.4,2.849,2.849,0,0,1,1.053.3,1.312,1.312,0,0,0,.741-.6,19.319,19.319,0,0,1,.3-3.251,4.535,4.535,0,0,1,1.238-1.032,8.26,8.26,0,0,1,2.008.372,3.536,3.536,0,0,1,.775,1.146,15.714,15.714,0,0,1,.068,2.707c-.255,1.8.535,2.5,2.4,2.642a4.387,4.387,0,0,1,1.227.334c1.23.292,2.461.583,3.954,1.008.954.22,1.908.441,3.117.81a32.243,32.243,0,0,1,3.422.97c1.113.264,2.227.528,3.624.915,1.527.372,3.055.744,4.715,1.236a9.851,9.851,0,0,1,1.488.4c.671.173,1.342.346,2.26.653,1.5.36,3,.721,4.775,1.193.947.231,1.893.463,3.1.84,1.343.339,2.687.678,4.3,1.143a13.871,13.871,0,0,1,2.248.639c1.475.362,2.949.725,4.664,1.211a17.626,17.626,0,0,1,2.61.713,21.338,21.338,0,0,1,2.865.766,26.573,26.573,0,0,1,3.111.8c1.362.315,2.724.629,4.3,1.14a27.035,27.035,0,0,1,3.1.852c1.358.314,2.717.629,4.288,1.121.72.147,1.441.295,2.425.58,1.588.4,3.176.8,4.979,1.387a20.77,20.77,0,0,1,2.758.712c1.231.3,2.462.6,3.964,1.021a28.089,28.089,0,0,1,3.412.944c.721.159,1.443.318,2.423.6a9.044,9.044,0,0,1,1.888.551c1.753.422,3.505.843,5.533,1.4.794.2,1.588.392,2.621.722,1.5.372,3.005.743,4.766,1.242a9.134,9.134,0,0,1,1.885.55c1.625.4,3.249.8,5.151,1.312.946.24,1.891.479,3.105.849a31.6,31.6,0,0,1,3.444.936,24.407,24.407,0,0,1,3.1.823,24.317,24.317,0,0,1,2.79.7c1.2.3,2.4.6,3.854,1,1.212.313,2.424.626,3.851,1.072a3.038,3.038,0,0,1,1.124.33,5.6,5.6,0,0,1,.944.17,8.257,8.257,0,0,1,1.076.351,38.533,38.533,0,0,1,3.908,1.037c1.235.281,2.47.563,3.978.978,1.589.4,3.177.8,4.967,1.383a5.764,5.764,0,0,1,1.543.431A24.126,24.126,0,0,1,221.89,83a32.236,32.236,0,0,1,3.425.965c1.242.275,2.484.55,3.978.984.674.164,1.347.327,2.263.633,1.5.375,3,.75,4.773,1.246a13.033,13.033,0,0,1,2.236.65c1.478.36,2.955.719,4.67,1.192.594.13,1.189.259,2.055.51,1.34.341,2.679.681,4.3,1.143,1.19.292,2.38.583,3.8,1.048.957.226,1.914.451,3.108.825a23.3,23.3,0,0,1,2.728.753c1.243.281,2.485.563,3.959,1.024a22.926,22.926,0,0,1,3.087.822c1.479.352,2.958.7,4.638,1.242a6.972,6.972,0,0,1,1.513.38,2.97,2.97,0,0,1,.917.212,8.179,8.179,0,0,1,1.1.279,14.2,14.2,0,0,1,2.344.657c.958.232,1.915.463,3.107.847,1.111.258,2.222.517,3.589.907.823.208,1.647.416,2.754.732,1.465.361,2.931.722,4.672,1.216.794.2,1.589.394,2.623.725,1.348.338,2.7.676,4.258,1.142a5.089,5.089,0,0,1,1.209.318c1.47.368,2.94.736,4.66,1.231a39.343,39.343,0,0,1,3.92,1.048c1.236.288,2.473.575,3.962,1.011.955.226,1.909.453,3.115.831a34.887,34.887,0,0,1,3.428.943,17.85,17.85,0,0,1,2.736.75c1.363.312,2.727.623,4.29,1.123a5.788,5.788,0,0,1,1.553.442c1.76.411,3.52.823,5.53,1.386.956.224,1.911.447,3.107.838a30.1,30.1,0,0,1,3.107.8,24.931,24.931,0,0,1,3.068.89c1.24.281,2.48.563,3.972,1a31.317,31.317,0,0,1,3.425.946c1.113.259,2.226.519,3.619.9.793.2,1.587.392,2.617.733,1.5.373,3,.745,4.767,1.236a12.017,12.017,0,0,1,2.164.613l5.685,1.451a7.725,7.725,0,0,1-.086-1.7,23.465,23.465,0,0,1,.468-4c-.1-.329-.131-.9-.306-.949-1.805-.489-3.633-.894-5.651-1.517a6.442,6.442,0,0,1-1.563-.428c-1.475-.359-2.95-.719-4.628-1.247-.6-.127-1.2-.253-2.044-.509a15.6,15.6,0,0,1-1.549-.386,4.225,4.225,0,0,1-.715-.308,16.108,16.108,0,0,1-2.378-.608,5.124,5.124,0,0,1-1.531-.453c-2-.506-3.991-1.013-6.221-1.656a10.258,10.258,0,0,1-1.564-.4c-1.113-.263-2.226-.525-3.6-.928a46.615,46.615,0,0,1-4.595-1.293,23.079,23.079,0,0,1-2.769-.745,20.884,20.884,0,0,1-3.018-.829c-1.381-.327-2.762-.653-4.355-1.176a31.03,31.03,0,0,1-3.1-.825c-.723-.152-1.446-.3-2.424-.6a23.908,23.908,0,0,1-2.993-.857,6.374,6.374,0,0,1-.9-.19,1.213,1.213,0,0,1-.7-.267,21.055,21.055,0,0,1-2.762-.733,22.217,22.217,0,0,1-3.015-.817c-1.387-.329-2.774-.658-4.369-1.183A20.931,20.931,0,0,1,298.6,96.3c-1.232-.3-2.464-.6-3.953-1.032a7.116,7.116,0,0,1-1.087-.3c-1.341-.347-2.682-.693-4.261-1.166A14.641,14.641,0,0,1,287,93.122a3.816,3.816,0,0,1-.908-.15,1.618,1.618,0,0,1-.712-.259c-1.244-.285-2.488-.571-3.954-1.037a10.784,10.784,0,0,1-1.9-.523c-1.631-.407-3.263-.813-5.156-1.355a28.2,28.2,0,0,1-3.4-.971,23.708,23.708,0,0,1-2.43-.622c-1.216-.314-2.432-.628-3.916-1.07-.951-.226-1.9-.452-3.122-.807a33.331,33.331,0,0,1-3.426-.98c-1.236-.3-2.473-.593-3.94-1.032a8.493,8.493,0,0,1-1.8-.526c-1.142-.277-2.284-.553-3.684-.961a8.6,8.6,0,0,1-1.889-.55c-1.593-.4-3.185-.8-5.032-1.32-.833-.2-1.666-.4-2.735-.756-1.5-.382-3-.764-4.777-1.267a16.18,16.18,0,0,1-2.238-.657c-1.241-.286-2.483-.573-3.947-1.046a21.717,21.717,0,0,1-3.074-.837c-1.111-.271-2.222-.541-3.615-.928-.792-.2-1.585-.394-2.617-.732-1.5-.38-3-.76-4.764-1.264a10.139,10.139,0,0,1-1.9-.548c-1.62-.41-3.24-.819-5.139-1.341a13.411,13.411,0,0,1-2.237-.666c-1.24-.285-2.479-.571-3.971-1.011-1.068-.269-2.136-.537-3.435-.976-.962-.234-1.923-.468-3.124-.838a37.357,37.357,0,0,1-3.893-1.058c-1.11-.269-2.219-.537-3.57-.9a1.3,1.3,0,0,1-.673-.277,4.433,4.433,0,0,1-1.272-.278c-.68-.166-1.36-.332-2.276-.621a15.476,15.476,0,0,1-2.336-.681,19.312,19.312,0,0,1-2.754-.716,26.86,26.86,0,0,1-3.112-.832,21.685,21.685,0,0,1-2.393-.614c-1.468-.371-2.936-.742-4.6-1.3a6.25,6.25,0,0,1-1.553-.447c-1.762-.414-3.525-.828-5.5-1.421a6.855,6.855,0,0,1-1.556-.439c-1.36-.318-2.72-.636-4.312-1.117a21.993,21.993,0,0,1-3-.872c-1.26-.3-2.521-.6-4.013-1.063-.832-.19-1.664-.38-2.761-.7-1.584-.41-3.168-.819-4.952-1.4a20.369,20.369,0,0,1-2.063-.518c-1.081-.251-2.161-.5-3.473-.935a23,23,0,0,1-3.055-.88c-1.362-.319-2.724-.638-4.3-1.141A19.894,19.894,0,0,1,124,49.145c-1.233-.3-2.465-.592-3.955-1.034a33.519,33.519,0,0,1-3.431-.973c-1.239-.293-2.477-.586-3.961-1.024a12.053,12.053,0,0,1-1.888-.561c-1.237-.29-2.475-.58-3.925-1.043a5.573,5.573,0,0,1-1.537-.444c-1.756-.425-3.512-.851-5.521-1.422a30.132,30.132,0,0,1-3.09-.875c-1.354-.325-2.707-.651-4.287-1.128a6.7,6.7,0,0,1-1.542-.45c-1.23-.3-2.459-.6-3.955-1.036-1.588-.4-3.176-.8-4.97-1.386a21.622,21.622,0,0,1-2.419-.6c-1.47-.365-2.94-.729-4.611-1.3a16.663,16.663,0,0,1-1.916-.5,13.465,13.465,0,0,1-2.372-.667,26.29,26.29,0,0,1-3.111-.814c-2.148-.016-4.3-.031-6.705-.105a3.286,3.286,0,0,1-.782.042,2.228,2.228,0,0,1-.72.019,3.384,3.384,0,0,1-.959.081,16.994,16.994,0,0,1-2.274.171H53.7l-.042.358c.76.226,1.521.453,2.506.831,1.635.523,3.269,1.047,5.056,1.724a2.953,2.953,0,0,1,.854.6,2.211,2.211,0,0,1,.481.8,11.85,11.85,0,0,1-.863,2.483,2.377,2.377,0,0,1-.868.349,5.11,5.11,0,0,0-.5,1.09q0,39.573,0,79.145c0,.517.046,1.033-.009,1.908,0,17.431.094,34.862-.057,52.291a99.535,99.535,0,0,0,2,18.595m314.379-30.281a5.2,5.2,0,0,1-.07-1.03c-.309-1.658-.63-3.314-.924-4.974-.424-2.394-1.616-3.008-3.846-1.963a2.246,2.246,0,0,1-2.928-.7,3.755,3.755,0,0,0-1.842-1.139c-13.592-3.044-27.2-6.026-40.8-9.044q-43.543-9.667-87.082-19.353-36.9-8.191-73.815-16.348-44.5-9.836-89.01-19.647c-1.059-.234-1.993-.546-3.073.345a2.666,2.666,0,0,1-2.511-.339c-.863-1.994-2.647-1.714-4.414-2.257l.981,21.59a33.45,33.45,0,0,1,4.015-.767,6,6,0,0,1,2.485.5c.891.347,1.651,1.081,2.556,1.334,1.488.415,3.048.572,4.576.848q31,5.6,61.994,11.2,29.757,5.347,59.524,10.64,26.595,4.78,53.178,9.624,23.629,4.259,47.268,8.467c7.586,1.352,15.18,2.657,22.949,4.094a11.6,11.6,0,0,1,1.338.258c1.146.206,2.291.415,3.437.619,11.072,1.966,22.144,3.931,33.405,6.008a3.434,3.434,0,0,1,.93.136c1.2.205,2.41.411,3.826.666a1.518,1.518,0,0,1,.462-.477c1.029-.934,2.316-1.014,3.008.059,1.067,1.654,2.547,1.6,4.38,1.65M177.844,327.672c.453-.032.911-.035,1.359-.1,13.024-1.913,26.042-3.859,39.07-5.743,20.989-3.036,41.987-6.01,62.975-9.052,13.023-1.888,26.031-3.876,39.052-5.778,13.666-2,27.34-3.939,41.009-5.914,3.5-.506,6.991-1.047,10.289-1.542v-10.2L74.947,324.658v17.925c.989-.093,1.639-.125,2.279-.218q19.249-2.8,38.5-5.614c12.19-1.77,24.385-3.507,36.574-5.284,8.405-1.226,16.8-2.495,25.547-3.794M274.7,318.2c-3.277.449-6.559.873-9.832,1.351q-19.632,2.864-39.261,5.752-19.633,2.86-39.27,5.685-18.194,2.634-36.388,5.272c-12.064,1.758-24.122,3.551-36.187,5.3-9.433,1.368-18.873,2.684-28.307,4.045-3.438.5-6.867,1.056-10.259,1.581-.2,1.8.552,3.966-1.922,4.261-2.574.307-2.4-1.908-2.664-3.672l-4.34.707.969,21.12L380.726,311.55l-1.783-9.174a21.826,21.826,0,0,1-3.206,2.123,6.531,6.531,0,0,1-2.8.373c-.946-.049-1.915-.685-2.807-.566-7.452.994-14.89,2.094-22.33,3.178q-19.729,2.876-39.455,5.77c-11.1,1.623-22.2,3.241-33.642,4.943m-184.167.108c.519-.031,1.041-.033,1.555-.1q17.288-2.093,34.575-4.195,19.028-2.283,38.062-4.522,21.931-2.614,43.86-5.241,18.932-2.254,37.866-4.486,22.024-2.62,44.046-5.257,21.932-2.6,43.868-5.17,17.779-2.106,35.55-4.289a3.457,3.457,0,0,0,1.865-1.238c.919-1.06,2.166-1.548,3.006-.533,1.308,1.583,2.558.838,4.062.59l-1.574-8.7c-1.257.658-2.291,1.568-3.405,1.679-1.15.115-2.4-.88-3.568-.812-5.7.334-11.389.876-17.083,1.318-12.292.954-24.587,1.868-36.877,2.84-17.4,1.376-34.8,2.805-52.206,4.181-10.479.828-20.965,1.573-31.444,2.4-19.084,1.507-38.164,3.068-57.248,4.57-17.534,1.38-35.074,2.7-52.608,4.072-15.592,1.224-31.18,2.5-46.771,3.73-.916.072-1.633.126-2.19,1.115a1.717,1.717,0,0,1-2.827.472c-1.516-1.772-3.069-.877-4.766-.667l.966,20.948c1.48-.045,2.721.234,3.073-1.686.1-.521,1.665-1.164,2.458-1.051.752.107,1.373,1.133,2.243,1.929,4.868-.6,10.016-1.238,15.515-1.9m223.61-93.478L74.808,215.494c0,1.826-.048,3.623-2.185,3.621-2.356,0-2.23-2.033-2.307-3.774H66.3l.963,20.924H69.9c.485-1.921-.9-4.88,2.136-5,3.513-.145,1.875,3.234,2.454,4.779H370.071l-.3-.75c.818-.683,1.721-2,2.433-1.9,1.128.153,2.129,1.251,3.184,1.949l-.26.321h3.484l-1.543-8.309c-.669-.058-1.257-.3-1.547-.1-2.391,1.626-4.622-.091-6.927-.193-18.025-.8-36.054-1.482-54.457-2.222M252.16,253.81q-18.892.225-37.784.449-34.475.384-68.95.75-30.482.319-60.965.6c-3.294.031-6.589,0-9.993,0-.031,1.889-.018,3.684-2.172,3.757-2.3.078-2.274-1.807-2.335-3.374H66.287l.973,21.049,2.706-.165c.16-1.659-.363-3.775,2.147-3.891s2.144,2.053,2.463,3.593c.681,0,1.261.026,1.838,0q40.158-2.087,80.316-4.183,34.423-1.793,68.847-3.582,26.059-1.353,52.119-2.7,26.255-1.363,52.509-2.734c13.095-.673,26.192-1.305,39.285-2.017a3.454,3.454,0,0,0,2.013-1.012c1.007-1,2.149-1.32,3.059-.3,1.31,1.467,2.7.888,4.276.751l-1.648-9.006a14.708,14.708,0,0,0-2.385,1.784c-1.058,1.242-2.954,1.46-3.571.04-.58-1.335-1.428-1.222-2.43-1.21q-23.856.305-47.712.614c-22.852.272-45.7.521-68.93.779m85.633-44.458,31.841,2.084-.268-.517c.818-.586,1.751-1.757,2.429-1.624,1.079.211,1.989,1.291,2.97,2l-.286.487c.97.046,1.939.109,2.909.132.94.023,1.882,0,2.944,0-.287-1.56-.578-2.955-.8-4.361-.648-4.166-.661-4.188-4.886-4.287a2.392,2.392,0,0,0-.376.05l.326.415c-.922.775-1.764,2.063-2.781,2.219-2.221.342-2.065-1.769-2.4-3.263-3.547-.373-7.02-.733-10.492-1.105q-17.32-1.859-34.639-3.721c-7.869-.834-15.745-1.6-23.614-2.436q-21.673-2.289-43.343-4.611c-11.421-1.206-22.847-2.363-34.268-3.577-9.158-.973-18.308-2.022-27.466-2.992-12.9-1.367-25.81-2.674-38.712-4.042-12.967-1.375-25.929-2.8-38.895-4.19-11.933-1.276-23.86-2.622-35.81-3.726-3.205-.3-6.452-1.6-9.733-.209-.342.145-.878-.085-1.3-.223-1.525-.5-3.038-1.037-4.872-1.668l.978,21.474,2.477.269-.254-.536c.943-.676,1.969-1.977,2.808-1.866,1.01.134,1.86,1.469,2.779,2.283a43.178,43.178,0,0,0,7.631.955c6.931.442,13.863.856,20.794,1.31,12.954.849,25.907,1.732,38.861,2.574,9,.585,18.005,1.106,27.006,1.692,13.214.861,26.424,1.77,39.638,2.63,14.7.957,29.4,1.872,44.1,2.826q23.222,1.508,46.442,3.053c12.627.826,25.256,1.637,38.248,2.489m35-28.176c-2.216,1.328-3.224.776-4.065-2.264q-13.773-2.277-27.584-4.56t-27.623-4.562c-9.141-1.524-18.274-3.091-27.415-4.612q-13.812-2.3-27.631-4.548-13.812-2.273-27.623-4.553t-27.611-4.621q-13.808-2.3-27.62-4.585c-9.205-1.536-18.4-3.107-27.612-4.63-9.143-1.512-18.295-2.972-27.439-4.478-9.21-1.516-18.433-2.966-27.618-4.62-9.059-1.632-18.212-2.615-27.42-4.526l.975,21.523c2.009-.2,3.8-.431,5.591-.536a5.04,5.04,0,0,1,1.828.394,13.773,13.773,0,0,0,2.437.952q16.012,2.064,32.038,4.022c14.03,1.735,28.064,3.435,42.093,5.184,15.188,1.894,30.37,3.842,45.559,5.736,13.967,1.742,27.941,3.426,41.908,5.165,15.253,1.9,30.5,3.845,45.753,5.746,13.967,1.741,27.94,3.431,41.906,5.18s27.921,3.561,41.89,5.276c.846.1,1.757-.521,2.657-.6.875-.081,2.259-.237,2.577.223,1.217,1.761,2.9,1.176,4.641,1.523l-1.548-8.361c-1.233-.086-2.428-.793-3.043,1.137M79.116,72.789,74.5,71.8V84.825l293.623,65.013c0-3.14.057-6.117-.06-9.088-.018-.458-.77-1.134-1.3-1.281-2.306-.638-4.656-1.116-6.989-1.655q-26.5-6.123-53-12.25-32.466-7.517-64.928-15.053T176.917,95.468q-28.961-6.705-57.924-13.4c-13.189-3.058-26.371-6.141-39.877-9.277m5.306,124.524-9.722-.64v14.374l295.491,11.542-.354-6.662c-14.031-.951-27.815-1.9-41.6-2.813-14.119-.932-28.241-1.817-42.361-2.732q-32.737-2.124-65.473-4.261-33.124-2.156-66.249-4.31c-23.123-1.5-46.246-2.976-69.731-4.5m55.2,80.452L74.54,281.142v13.664l296.621-23.34v-5.65c-.654,0-1.16-.023-1.664,0-6.482.342-12.964.706-19.447,1.037-15.818.806-31.639,1.578-47.456,2.4-16.4.854-32.8,1.777-49.208,2.627-18.605.963-37.214,1.858-55.82,2.82-19.192.992-38.382,2.03-57.947,3.061m151.194-37.4-216.267.452v10.522l295.859-3.319v-7.656H290.813M176.285,142.521c10.556,1.719,21.116,3.413,31.667,5.165,11.378,1.889,22.744,3.857,34.122,5.746,10.489,1.742,20.993,3.4,31.483,5.139q21.958,3.645,43.9,7.356,19.565,3.27,39.134,6.511c4.011.665,8.028,1.293,12.026,1.935v-7.094L74.553,114.441v11.2c11.636,1.894,23.153,3.743,34.66,5.65q21.959,3.64,43.906,7.356c7.61,1.276,15.219,2.551,23.167,3.871m137.153,42.461q-13.037-1.606-26.073-3.216c-11.067-1.386-22.129-2.809-33.2-4.192-10.745-1.343-21.494-2.644-32.239-3.984-12.16-1.516-24.315-3.068-36.476-4.58-9.785-1.216-19.577-2.381-29.362-3.6q-16.8-2.088-33.588-4.225-16.214-2.037-32.429-4.062c-5.07-.632-10.142-1.244-15.4-1.887v11.769l294.562,31.206v-6.306c-18.536-2.3-36.993-4.6-55.8-6.925M302.029,89.59Q277.862,82.981,253.7,76.373q-49.383-13.5-98.766-26.988Q115.106,38.5,75.28,27.629a83.208,83.208,0,0,0-11.113-2.685c-3.578-.459-7.262-.109-10.9-.087-.5,0-1.158-.006-1.456.285-1.549,1.512-3,3.119-4.782,5,5.217-.309,9.928-.638,14.645-.845a20.979,20.979,0,0,1,6.164.18q37.92,10.07,75.783,20.357Q190.6,62.507,237.578,75.2q71.072,19.216,142.139,38.452c1.8.487,3.625.89,5.438,1.333l.382-.668c-1.192-.961-2.242-2.432-3.6-2.807-26.514-7.352-53.064-14.576-79.91-21.918M54.237,215c1.69-1.559,1.716-3.7-.042-5.516C52.9,211.253,52.874,213,54.237,215Z" transform="translate(-23.366 -11.632)" fill="#070707"/>
    <path id="Trazado_33" data-name="Trazado 33" d="M761.576,265.178c1.016.791,1.617,1.762.967,3.032-.7,1.364-1.914,1.334-3.206,1.011q-33.831-8.47-67.664-16.936c-2.258-.566-3.175-1.622-2.653-3.023.7-1.891,2.2-1.655,3.743-1.268,10.3,2.577,20.6,5.137,31.136,7.787.451.106.671.128,1.033.207,3.749.963,7.353,1.885,10.972,2.744.336.08.767-.245,1.154-.383.085-.009.169-.012.2.154,1.518.678,3.089,1.191,4.771,1.753a3.3,3.3,0,0,1,.7.179,4.947,4.947,0,0,0,.964.284,1.683,1.683,0,0,1,.753.109c.932.294,1.672.448,2.524.677C751.915,262.779,756.745,263.979,761.576,265.178Z" transform="translate(-419.725 -150.468)" fill="#090909"/>
    <path id="Trazado_35" data-name="Trazado 35" d="M98.086,466.134a.636.636,0,0,1,.544-.163,2.575,2.575,0,0,0,2.685,2.093c1.464.044,2.924.212,4.5.335v2.8c-.959-.094-1.844-.148-2.718-.271C99,470.353,99.005,470.346,98.086,466.134Z" transform="translate(-59.185 -283.656)" fill="#e4e4e4"/>
    <path id="Trazado_36" data-name="Trazado 36" d="M852.918,285.448c-5.2-1.14-10.028-2.34-14.93-3.793a1.834,1.834,0,0,1-.02-.617l13.994,3.531a16.8,16.8,0,0,1,1.961.594C853.776,285.313,853.531,285.351,852.918,285.448Z" transform="translate(-510.7 -170.797)" fill="#e4e4e4"/>
    <path id="Trazado_37" data-name="Trazado 37" d="M793.288,269.291c-.388.3-.819.63-1.155.55-3.619-.859-7.223-1.781-10.974-2.882a3.064,3.064,0,0,1-.143-1.027c2.992.751,5.985,1.5,9.119,2.35.088.08.034.063-.02.046l.115-.086A21.94,21.94,0,0,1,793.288,269.291Z" transform="translate(-475.954 -161.579)" fill="#f9f9f9"/>
    <path id="Trazado_38" data-name="Trazado 38" d="M75.739,511.247a4.33,4.33,0,0,1,.079-5.422C77.577,507.64,77.55,509.782,75.739,511.247Z" transform="translate(-44.989 -307.977)" fill="#e4e4e4"/>
    <path id="Trazado_39" data-name="Trazado 39" d="M821.233,247.343a3.692,3.692,0,0,1-2.046.439c-.9-.236-1.693-.866-2.553.018a17.958,17.958,0,0,1-1.5-1.931A53.249,53.249,0,0,1,821.233,247.343Z" transform="translate(-496.776 -149.335)" fill="#fafafa"/>
    <path id="Trazado_40" data-name="Trazado 40" d="M873.654,262.518a28.5,28.5,0,0,1-4.207-.778c-.551-.165-.956-.816-1.429-1.4a49.672,49.672,0,0,1,5.453,1.173C873.645,261.565,873.677,262.138,873.654,262.518Z" transform="translate(-529.048 -158.169)" fill="#fafafa"/>
    <path id="Trazado_41" data-name="Trazado 41" d="M474.96,153.853a2.947,2.947,0,0,1-4.968-1.179A40.911,40.911,0,0,1,474.96,153.853Z" transform="translate(-286.146 -92.461)" fill="#fafafa"/>
    <path id="Trazado_42" data-name="Trazado 42" d="M233.192,106.8c.754-1.828,2.269-.8,3.465-.812.362,0,.734,1.075,1.083,1.827A29.864,29.864,0,0,1,233.192,106.8Z" transform="translate(-141.635 -63.803)" fill="#fafafa"/>
    <path id="Trazado_43" data-name="Trazado 43" d="M391.238,148.939c.977-1.3,2.316-.937,3.514-.51.592.211.981.994,1.463,1.667A39.24,39.24,0,0,1,391.238,148.939Z" transform="translate(-238.085 -89.63)" fill="#fafafa"/>
    <path id="Trazado_44" data-name="Trazado 44" d="M621.25,209.656c1.389-.407,2.881-.711,4.56-1.052,0,1.018,0,1.46-.011,2.056A31.132,31.132,0,0,1,621.25,209.656Z" transform="translate(-378.454 -126.593)" fill="#fafafa"/>
    <path id="Trazado_45" data-name="Trazado 45" d="M301.993,107.2c-1.084,1.324-2.561.429-3.9.458-.325.007-.671-.929-.994-1.593A43.039,43.039,0,0,1,301.993,107.2Z" transform="translate(-180.633 -64.02)" fill="#fafafa"/>
    <path id="Trazado_46" data-name="Trazado 46" d="M200.367,79.737c-2.488,1.125-4.62.659-5.363-1.234A44.376,44.376,0,0,1,200.367,79.737Z" transform="translate(-118.33 -47.197)" fill="#fafafa"/>
    <path id="Trazado_47" data-name="Trazado 47" d="M303.337,125.822a3.143,3.143,0,0,1,4.9,1.11A43.159,43.159,0,0,1,303.337,125.822Z" transform="translate(-184.442 -75.612)" fill="#fafafa"/>
    <path id="Trazado_48" data-name="Trazado 48" d="M286.175,120.845c.594-1.8,2.052-.85,3.15-.891.331-.012.7,1.035,1.043,1.763A25.889,25.889,0,0,1,286.175,120.845Z" transform="translate(-173.969 -72.362)" fill="#fafafa"/>
    <path id="Trazado_49" data-name="Trazado 49" d="M355.391,121.626a50.588,50.588,0,0,1-5.064-.007c-.126-.006-.218-.663-.326-1.177A43.606,43.606,0,0,1,355.391,121.626Z" transform="translate(-212.92 -72.791)" fill="#fafafa"/>
    <path id="Trazado_50" data-name="Trazado 50" d="M268.258,98.1c-2.025,1.694-3.872,1.335-4.2-.9A25.087,25.087,0,0,1,268.258,98.1Z" transform="translate(-160.474 -58.606)" fill="#fafafa"/>
    <path id="Trazado_51" data-name="Trazado 51" d="M648,200.635a28.453,28.453,0,0,1-4.384.4c-.206,0-.413-.918-.619-1.562A41.461,41.461,0,0,1,648,200.635Z" transform="translate(-391.726 -121.022)" fill="#fafafa"/>
    <path id="Trazado_52" data-name="Trazado 52" d="M372.566,126.3c-.8.268-1.75.4-2.662.654-1.4.387-1.947-.164-1.873-1.687A34.782,34.782,0,0,1,372.566,126.3Z" transform="translate(-223.918 -75.733)" fill="#fafafa"/>
    <path id="Trazado_53" data-name="Trazado 53" d="M776.2,252.282a40.974,40.974,0,0,1,4.867-.052c.189.01.342.7.513,1.236A43.02,43.02,0,0,1,776.2,252.282Z" transform="translate(-473.013 -153.186)" fill="#fafafa"/>
    <path id="Trazado_54" data-name="Trazado 54" d="M374.13,144.757c1.57-1.286,4.461-.7,4.627,1.036A41,41,0,0,1,374.13,144.757Z" transform="translate(-227.645 -87.205)" fill="#fafafa"/>
    <path id="Trazado_55" data-name="Trazado 55" d="M849.136,270.788c1.441-.254,3-.435,4.559-.617.036.508.072,1.016.087,1.665A40.321,40.321,0,0,1,849.136,270.788Z" transform="translate(-517.525 -164.165)" fill="#fafafa"/>
    <path id="Trazado_56" data-name="Trazado 56" d="M323.252,130.774c.622-1.714,2.018-.653,3.094-.8.164-.023.467.951.707,1.628A21.9,21.9,0,0,1,323.252,130.774Z" transform="translate(-196.596 -78.491)" fill="#fafafa"/>
    <path id="Trazado_57" data-name="Trazado 57" d="M550.168,191.766a22.808,22.808,0,0,1,3.975-.49c.19,0,.4.863.581,1.5A29.138,29.138,0,0,1,550.168,191.766Z" transform="translate(-335.075 -116.019)" fill="#fafafa"/>
    <path id="Trazado_58" data-name="Trazado 58" d="M180.174,74.3c-.743,1.841-2.363-.153-3.38.8A18.44,18.44,0,0,1,176,73.392,28.245,28.245,0,0,1,180.174,74.3Z" transform="translate(-106.733 -44.078)" fill="#fafafa"/>
    <path id="Trazado_59" data-name="Trazado 59" d="M768.3,233.164c-2.227,1.555-3.536,1.288-4.249-.934A26.68,26.68,0,0,1,768.3,233.164Z" transform="translate(-465.6 -141.011)" fill="#fafafa"/>
    <path id="Trazado_60" data-name="Trazado 60" d="M492.649,158.605c-1.859,1.31-3.64.933-4.605-1.068A42.367,42.367,0,0,1,492.649,158.605Z" transform="translate(-297.163 -95.429)" fill="#fafafa"/>
    <path id="Trazado_61" data-name="Trazado 61" d="M698.8,214.365a13.4,13.4,0,0,1-3.14.8c-.167.018-.439-.952-.663-1.629A21.941,21.941,0,0,1,698.8,214.365Z" transform="translate(-423.46 -129.603)" fill="#fafafa"/>
    <path id="Trazado_62" data-name="Trazado 62" d="M464.15,168.258a4.548,4.548,0,0,1,2.284-.981c.551.042,1.032,1.016,1.541,1.729A26.258,26.258,0,0,1,464.15,168.258Z" transform="translate(-282.581 -101.37)" fill="#fafafa"/>
    <path id="Trazado_63" data-name="Trazado 63" d="M421.42,139.419a22.742,22.742,0,0,1-2.759,1.212c-.223-.6-.446-1.208-.669-1.966A17.99,17.99,0,0,1,421.42,139.419Z" transform="translate(-254.413 -83.912)" fill="#fafafa"/>
    <path id="Trazado_64" data-name="Trazado 64" d="M866.936,275.511a3.02,3.02,0,0,1,3.7.115c.341.279,1.076.075,1.777.083a3.682,3.682,0,0,1,.32,1.356C870.725,276.553,868.887,276.084,866.936,275.511Z" transform="translate(-528.388 -167.071)" fill="#fafafa"/>
    <path id="Trazado_65" data-name="Trazado 65" d="M856.654,257.046a20.327,20.327,0,0,1-3.832.449c-.242,0-.486-.832-.714-1.453A29.4,29.4,0,0,1,856.654,257.046Z" transform="translate(-519.339 -155.543)" fill="#fafafa"/>
    <path id="Trazado_66" data-name="Trazado 66" d="M484.345,173.6c.417-.351,1.1-1,1.5-.851a16.32,16.32,0,0,1,3.394,1.97A48.711,48.711,0,0,1,484.345,173.6Z" transform="translate(-294.906 -104.698)" fill="#fafafa"/>
    <path id="Trazado_67" data-name="Trazado 67" d="M196.142,97.732c1.552-1.226,4.056-.745,4.623,1A39.7,39.7,0,0,1,196.142,97.732Z" transform="translate(-119.025 -58.515)" fill="#fafafa"/>
    <path id="Trazado_68" data-name="Trazado 68" d="M672.36,223.8a2.91,2.91,0,0,1,4.535.988A42.908,42.908,0,0,1,672.36,223.8Z" transform="translate(-409.645 -135.427)" fill="#fafafa"/>
    <path id="Trazado_69" data-name="Trazado 69" d="M716.336,219.129c-2.537,1.393-3.572,1.183-4.276-.938A27.673,27.673,0,0,1,716.336,219.129Z" transform="translate(-433.872 -132.444)" fill="#fafafa"/>
    <path id="Trazado_70" data-name="Trazado 70" d="M761.2,247.69a24.907,24.907,0,0,1,3.908-.472c.118,0,.267.8.343,1.374A27.409,27.409,0,0,1,761.2,247.69Z" transform="translate(-463.862 -150.157)" fill="#fafafa"/>
    <path id="Trazado_71" data-name="Trazado 71" d="M446.191,163.507c.4-.35,1-.987,1.428-.885.9.216,2.473-.288,2.349,1.709A27.187,27.187,0,0,1,446.191,163.507Z" transform="translate(-271.622 -98.525)" fill="#fafafa"/>
    <path id="Trazado_72" data-name="Trazado 72" d="M567.345,195.664c1.279-1.393,2.72-1.1,4.135.947A38.441,38.441,0,0,1,567.345,195.664Z" transform="translate(-345.558 -118.173)" fill="#fafafa"/>
    <path id="Trazado_73" data-name="Trazado 73" d="M564.083,177.922c-1.926.847-4.075.377-4.892-1.15A34.668,34.668,0,0,1,564.083,177.922Z" transform="translate(-340.582 -107.167)" fill="#fafafa"/>
    <path id="Trazado_74" data-name="Trazado 74" d="M544.65,172.627a3.085,3.085,0,0,1-4.6-1.082A41.121,41.121,0,0,1,544.65,172.627Z" transform="translate(-328.898 -103.977)" fill="#fafafa"/>
    <path id="Trazado_75" data-name="Trazado 75" d="M216.822,84.189c-.352.354-1.049.957-1.238.827-.823-.57-2.662.589-2.585-1.625A23.025,23.025,0,0,1,216.822,84.189Z" transform="translate(-129.311 -50.179)" fill="#fafafa"/>
    <path id="Trazado_76" data-name="Trazado 76" d="M250.8,93.371c-2.272,1.387-3.272,1.187-3.8-.835A22.963,22.963,0,0,1,250.8,93.371Z" transform="translate(-150.06 -55.761)" fill="#fafafa"/>
    <path id="Trazado_77" data-name="Trazado 77" d="M457.847,149.282c-1.433,1.572-2.519,1.355-3.8-.816A23.963,23.963,0,0,1,457.847,149.282Z" transform="translate(-276.414 -89.893)" fill="#fafafa"/>
    <path id="Trazado_78" data-name="Trazado 78" d="M353.25,139.874c1.9-.663,4.573-.088,5.356,1.22A45.286,45.286,0,0,1,353.25,139.874Z" transform="translate(-214.902 -84.48)" fill="#fafafa"/>
    <path id="Trazado_79" data-name="Trazado 79" d="M231.826,88.235c-1.223,1.4-3.041,1.047-3.82-.824A23.349,23.349,0,0,1,231.826,88.235Z" transform="translate(-138.471 -52.633)" fill="#fafafa"/>
    <path id="Trazado_80" data-name="Trazado 80" d="M814.192,261.213c.36-.353,1.056-.934,1.248-.8.815.572,2.623-.592,2.574,1.586A21.851,21.851,0,0,1,814.192,261.213Z" transform="translate(-496.2 -158.199)" fill="#fafafa"/>
    <path id="Trazado_81" data-name="Trazado 81" d="M727.222,237.89c2.264-1.423,2.781-1.319,3.794.822A24.075,24.075,0,0,1,727.222,237.89Z" transform="translate(-443.125 -143.886)" fill="#fafafa"/>
    <path id="Trazado_82" data-name="Trazado 82" d="M685.332,210.7a2.573,2.573,0,0,1-4.169-.935A29.515,29.515,0,0,1,685.332,210.7Z" transform="translate(-415.017 -127.3)" fill="#fafafa"/>
    <path id="Trazado_83" data-name="Trazado 83" d="M216.331,102.95c1.08-1.189,3.165-.758,4.14.948A34.181,34.181,0,0,1,216.331,102.95Z" transform="translate(-131.345 -61.706)" fill="#fafafa"/>
    <path id="Trazado_84" data-name="Trazado 84" d="M705.173,232.733c2.376-.935,3.629-.679,4.54,1.03A34.271,34.271,0,0,1,705.173,232.733Z" transform="translate(-429.669 -140.992)" fill="#fafafa"/>
    <path id="Trazado_85" data-name="Trazado 85" d="M532.143,186.79a3.087,3.087,0,0,1,4.6,1.06A43.407,43.407,0,0,1,532.143,186.79Z" transform="translate(-324.075 -112.908)" fill="#fafafa"/>
    <path id="Trazado_86" data-name="Trazado 86" d="M691.136,228.84c1.413-1.164,3.688-.728,4.184.921A30.583,30.583,0,0,1,691.136,228.84Z" transform="translate(-421.103 -138.543)" fill="#fafafa"/>
    <path id="Trazado_87" data-name="Trazado 87" d="M510.425,163.415c-1.058,1.455-2.507,1.151-3.424-.775A18.559,18.559,0,0,1,510.425,163.415Z" transform="translate(-308.731 -98.543)" fill="#fafafa"/>
    <path id="Trazado_88" data-name="Trazado 88" d="M603.149,205.535c1.819-1.126,3.376-.851,3.838.771A22.607,22.607,0,0,1,603.149,205.535Z" transform="translate(-367.408 -124.304)" fill="#fafafa"/>
    <path id="Trazado_89" data-name="Trazado 89" d="M267.192,116.644c1.412-.256,3.127-1.438,4.2.886A28,28,0,0,1,267.192,116.644Z" transform="translate(-162.384 -70.151)" fill="#fafafa"/>
    <path id="Trazado_90" data-name="Trazado 90" d="M165.795,70.384a2.425,2.425,0,0,1-3.8-.841A22.29,22.29,0,0,1,165.795,70.384Z" transform="translate(-98.189 -41.728)" fill="#fafafa"/>
    <path id="Trazado_91" data-name="Trazado 91" d="M664.839,205.22c-1.838,1.051-3.129.809-3.832-.8A22.564,22.564,0,0,1,664.839,205.22Z" transform="translate(-402.717 -124.042)" fill="#fafafa"/>
    <path id="Trazado_92" data-name="Trazado 92" d="M412.341,154.525c.754-1.464,2.4-1.194,3.366.656A21.273,21.273,0,0,1,412.341,154.525Z" transform="translate(-250.964 -93.017)" fill="#fafafa"/>
    <path id="Trazado_93" data-name="Trazado 93" d="M516.172,182.262c1.09-1.305,2.559-1.025,3.814.784A24.482,24.482,0,0,1,516.172,182.262Z" transform="translate(-314.328 -110.023)" fill="#fafafa"/>
    <path id="Trazado_94" data-name="Trazado 94" d="M148.328,84.27c.192-.431.723-1.154.806-1.106a12.151,12.151,0,0,1,2.169,1.694A17.7,17.7,0,0,1,148.328,84.27Z" transform="translate(-89.846 -50.04)" fill="#f4f4f4"/>
    <path id="Trazado_95" data-name="Trazado 95" d="M656.15,219.355c1.351-1.324,2.923-1.049,3.45.7A20.525,20.525,0,0,1,656.15,219.355Z" transform="translate(-399.752 -132.647)" fill="#fafafa"/>
    <path id="Trazado_96" data-name="Trazado 96" d="M594.817,186.275a8.9,8.9,0,0,1-2.772.488c-.362-.014-.7-.75-1.043-1.316A22.466,22.466,0,0,1,594.817,186.275Z" transform="translate(-359.994 -112.462)" fill="#fafafa"/>
    <path id="Trazado_97" data-name="Trazado 97" d="M320.887,112.3a9.234,9.234,0,0,1-2.847.47c-.361-.015-.692-.745-1.038-1.31A21.95,21.95,0,0,1,320.887,112.3Z" transform="translate(-192.781 -67.312)" fill="#fafafa"/>
    <path id="Trazado_98" data-name="Trazado 98" d="M339.2,117.289a3.031,3.031,0,0,1-4.183-.895A27.587,27.587,0,0,1,339.2,117.289Z" transform="translate(-203.773 -70.321)" fill="#fafafa"/>
    <path id="Trazado_99" data-name="Trazado 99" d="M527.861,168.16c-1.677,1.059-2.73.857-3.819-.8A24.741,24.741,0,0,1,527.861,168.16Z" transform="translate(-319.132 -101.421)" fill="#fafafa"/>
    <path id="Trazado_100" data-name="Trazado 100" d="M165.182,89.4c1.022-1.149,2.432-.869,3.438.747A19.6,19.6,0,0,1,165.182,89.4Z" transform="translate(-100.131 -53.418)" fill="#f4f4f4"/>
    <path id="Trazado_101" data-name="Trazado 101" d="M785.643,237.852c-.481.466-1.042,1.05-1.633,1.083-.308.017-.67-.938-1.008-1.605A10.142,10.142,0,0,1,785.643,237.852Z" transform="translate(-477.166 -144.123)" fill="#fafafa"/>
    <path id="Trazado_102" data-name="Trazado 102" d="M588.17,201.32a12.339,12.339,0,0,1,2.6-.793,6.3,6.3,0,0,1,.4,1.4A14.244,14.244,0,0,1,588.17,201.32Z" transform="translate(-358.266 -121.664)" fill="#fafafa"/>
    <path id="Trazado_103" data-name="Trazado 103" d="M440.112,144.457c-2.119,1.4-2.77,1.29-3.015-.616A13.648,13.648,0,0,1,440.112,144.457Z" transform="translate(-266.072 -87.071)" fill="#fafafa"/>
    <path id="Trazado_104" data-name="Trazado 104" d="M798.307,256.82c1.046-1.331,2.06-1.172,2.995.556A14.9,14.9,0,0,1,798.307,256.82Z" transform="translate(-486.506 -155.478)" fill="#fafafa"/>
    <path id="Trazado_105" data-name="Trazado 105" d="M745.322,243.054c1.552-1.114,2.606-.93,3.347.683A19.42,19.42,0,0,1,745.322,243.054Z" transform="translate(-454.171 -147.186)" fill="#fafafa"/>
    <path id="Trazado_106" data-name="Trazado 106" d="M833.174,266.409c1.231-.687,2.589-1.4,3.438.726A18.707,18.707,0,0,1,833.174,266.409Z" transform="translate(-507.784 -161.448)" fill="#fafafa"/>
    <path id="Trazado_107" data-name="Trazado 107" d="M389.046,130.736c-1.242,1.679-2.151.793-3.007-.6A14.369,14.369,0,0,1,389.046,130.736Z" transform="translate(-234.913 -78.707)" fill="#fafafa"/>
    <path id="Trazado_108" data-name="Trazado 108" d="M612.989,191.131c-.673,1.317-1.81,1.126-2.984-.6A17.828,17.828,0,0,1,612.989,191.131Z" transform="translate(-371.592 -115.563)" fill="#fafafa"/>
    <path id="Trazado_109" data-name="Trazado 109" d="M286.377,103c-.9.9-3.063.526-3.375-.682A21.507,21.507,0,0,1,286.377,103Z" transform="translate(-172.032 -61.732)" fill="#fafafa"/>
    <path id="Trazado_110" data-name="Trazado 110" d="M145.273,64.863a8.645,8.645,0,0,1-1.358,1.3A18.352,18.352,0,0,1,143,64.474,8.254,8.254,0,0,1,145.273,64.863Z" transform="translate(-86.596 -38.635)" fill="#fafafa"/>
    <path id="Trazado_111" data-name="Trazado 111" d="M580.536,182.364c-1.214.407-2.7,1.52-3.531-.783A19.566,19.566,0,0,1,580.536,182.364Z" transform="translate(-351.452 -110.102)" fill="#fafafa"/>
    <path id="Trazado_112" data-name="Trazado 112" d="M805.463,243.162a2.346,2.346,0,0,1-3.451-.709A21.084,21.084,0,0,1,805.463,243.162Z" transform="translate(-488.767 -147.251)" fill="#fafafa"/>
    <path id="Trazado_113" data-name="Trazado 113" d="M501.157,177.585a5.82,5.82,0,0,1,.912-1.242,15.9,15.9,0,0,1,1.365,1.635A7.7,7.7,0,0,1,501.157,177.585Z" transform="translate(-305.165 -106.905)" fill="#fafafa"/>
    <path id="Trazado_114" data-name="Trazado 114" d="M110.34,286.051a12.941,12.941,0,0,1,2.719-.752,2.856,2.856,0,0,1,.183,1.265C112.241,286.408,111.357,286.27,110.34,286.051Z" transform="translate(-66.663 -173.397)" fill="#f4f4f4"/>
    <path id="Trazado_115" data-name="Trazado 115" d="M817.779,277.087a41.905,41.905,0,0,1-4.6-1.7,21.193,21.193,0,0,1,4.438.809A2.2,2.2,0,0,1,817.779,277.087Z" transform="translate(-495.585 -167.347)" fill="#f9f9f9"/>
    <path id="Trazado_116" data-name="Trazado 116" d="M102.378,177.076a6.628,6.628,0,0,1,.391-1.889c.917.873,1.536,1.463,2.17,2.188A14.449,14.449,0,0,1,102.378,177.076Z" transform="translate(-61.804 -106.2)" fill="#f4f4f4"/>
    <path id="Trazado_117" data-name="Trazado 117" d="M733.672,223.8c-.89,1.255-1.707,1.115-2.641-.506A9.965,9.965,0,0,1,733.672,223.8Z" transform="translate(-445.45 -135.561)" fill="#fafafa"/>
    <path id="Trazado_118" data-name="Trazado 118" d="M429.205,158.888c1.084-1.68,1.9-.981,2.633.48A11.141,11.141,0,0,1,429.205,158.888Z" transform="translate(-261.255 -95.656)" fill="#fafafa"/>
    <path id="Trazado_119" data-name="Trazado 119" d="M342.214,135.867c1.023-1.377,1.731-1.264,2.256.425A7.5,7.5,0,0,1,342.214,135.867Z" transform="translate(-208.167 -81.627)" fill="#fafafa"/>
    <path id="Trazado_120" data-name="Trazado 120" d="M642.154,215.2c.954-1.485,1.419-1.432,2.259.361A9.371,9.371,0,0,1,642.154,215.2Z" transform="translate(-391.211 -129.973)" fill="#fafafa"/>
    <path id="Trazado_121" data-name="Trazado 121" d="M630.276,195.859a13.379,13.379,0,0,1-2.066,1.436c-.086-.7-.148-1.2-.21-1.856A7.663,7.663,0,0,1,630.276,195.859Z" transform="translate(-382.573 -118.559)" fill="#fafafa"/>
    <path id="Trazado_122" data-name="Trazado 122" d="M114.383,150.367a8.551,8.551,0,0,1-2.239-1.44C112.966,149.169,114.465,148.474,114.383,150.367Z" transform="translate(-67.764 -90.174)" fill="#f4f4f4"/>
    <path id="Trazado_123" data-name="Trazado 123" d="M837.288,251.728c-1.447,1.49-1.815,1.449-2.287-.345A8.528,8.528,0,0,1,837.288,251.728Z" transform="translate(-508.899 -152.699)" fill="#fafafa"/>
    <path id="Trazado_124" data-name="Trazado 124" d="M115.1,56.707c-1.224,1.6-1.992-.028-2.985-.585A13.821,13.821,0,0,1,115.1,56.707Z" transform="translate(-67.749 -33.539)" fill="#f4f4f4"/>
    <path id="Trazado_125" data-name="Trazado 125" d="M251.846,112.464c1.02-.922,2-.877,2.77.531A12.315,12.315,0,0,1,251.846,112.464Z" transform="translate(-153.019 -67.543)" fill="#fafafa"/>
    <path id="Trazado_126" data-name="Trazado 126" d="M98.051,66.491c.278.375.8.9.788,1.42-.007.385-.7.756-1.248,1.137A20.087,20.087,0,0,1,98.051,66.491Z" transform="translate(-58.882 -39.866)" fill="#f4f4f4"/>
    <path id="Trazado_127" data-name="Trazado 127" d="M752.281,228.809c-.9,1.465-1.64.989-2.274-.4A8.63,8.63,0,0,1,752.281,228.809Z" transform="translate(-457.03 -138.68)" fill="#fafafa"/>
    <path id="Trazado_128" data-name="Trazado 128" d="M403.348,134.526c-.525,1.306-.525,1.306-2.235-.4A9.552,9.552,0,0,1,403.348,134.526Z" transform="translate(-244.112 -81.139)" fill="#fafafa"/>
    <path id="Trazado_129" data-name="Trazado 129" d="M95.19,61.32a5.465,5.465,0,0,1,.679-1.119,5.553,5.553,0,0,1,.3,1.521A2.441,2.441,0,0,1,95.19,61.32Z" transform="translate(-57.417 -36.028)" fill="#f4f4f4"/>
    <path id="Trazado_130" data-name="Trazado 130" d="M101,76.429c-.346-1.067-.884-2.462,1.467-1.66A11.54,11.54,0,0,1,101,76.429Z" transform="translate(-60.776 -44.773)" fill="#f4f4f4"/>
    <path id="Trazado_131" data-name="Trazado 131" d="M78.559,55.833a1.573,1.573,0,0,1-.247.874,14.545,14.545,0,0,1-2.329-.555l.042-.358C76.817,55.795,77.609,55.795,78.559,55.833Z" transform="translate(-45.696 -33.339)" fill="#f4f4f4"/>
    <path id="Trazado_132" data-name="Trazado 132" d="M118.059,66.077c-.529-.833-.264-1.2.947-1.176A4.9,4.9,0,0,1,118.059,66.077Z" transform="translate(-71.215 -38.896)" fill="#f4f4f4"/>
    <path id="Trazado_133" data-name="Trazado 133" d="M127.979,60.126a4.682,4.682,0,0,1-1.79-.311A4.682,4.682,0,0,1,127.979,60.126Z" transform="translate(-76.335 -35.789)" fill="#f4f4f4"/>
    <path id="Trazado_134" data-name="Trazado 134" d="M99.253,253.447c-1.22.188-1.514-.291-.648-1.375A4.93,4.93,0,0,1,99.253,253.447Z" transform="translate(-59.197 -153.12)" fill="#f4f4f4"/>
    <path id="Trazado_135" data-name="Trazado 135" d="M135.151,81.081a3.012,3.012,0,0,1,.544-.9,5.951,5.951,0,0,1,.551,1A1.764,1.764,0,0,1,135.151,81.081Z" transform="translate(-81.804 -48.221)" fill="#f4f4f4"/>
    <path id="Trazado_136" data-name="Trazado 136" d="M844.47,253.679c-.515,1.278-.93.331-1.419-.214A4.163,4.163,0,0,1,844.47,253.679Z" transform="translate(-513.811 -153.966)" fill="#fafafa"/>
    <path id="Trazado_137" data-name="Trazado 137" d="M779.7,265.532a4.954,4.954,0,0,1,.075,1.054.83.83,0,0,1-.73-.014,5.524,5.524,0,0,1-.064-1.095A.815.815,0,0,1,779.7,265.532Z" transform="translate(-474.712 -161.264)" fill="#e4e4e4"/>
    <path id="Trazado_138" data-name="Trazado 138" d="M109.145,74.63c.48-.794,1.022-.982,1.447.213A3.239,3.239,0,0,1,109.145,74.63Z" transform="translate(-65.933 -44.443)" fill="#f4f4f4"/>
    <path id="Trazado_139" data-name="Trazado 139" d="M825.083,278.477a2.245,2.245,0,0,1-.114-.889,1.613,1.613,0,0,1,1.108.354,1.25,1.25,0,0,1-.4.612A3.478,3.478,0,0,1,825.083,278.477Z" transform="translate(-502.777 -168.69)" fill="#e4e4e4"/>
    <path id="Trazado_140" data-name="Trazado 140" d="M186.672,94.968c.423-1.3.832-.608,1.272.154A2.672,2.672,0,0,1,186.672,94.968Z" transform="translate(-113.245 -56.803)" fill="#f4f4f4"/>
    <path id="Trazado_141" data-name="Trazado 141" d="M834.01,280.091c.126.206.109.327.05.626a6.48,6.48,0,0,1-2.36-.416C831.994,279.437,831.994,279.437,834.01,280.091Z" transform="translate(-506.885 -169.934)" fill="#f9f9f9"/>
    <path id="Trazado_142" data-name="Trazado 142" d="M126.906,65.036a1.49,1.49,0,0,1,.453-.5,10.974,10.974,0,0,1,.357,1.239A2.616,2.616,0,0,1,126.906,65.036Z" transform="translate(-76.773 -38.672)" fill="#f4f4f4"/>
    <path id="Trazado_143" data-name="Trazado 143" d="M774.155,364.995c.3-1.135.681-.67,1.092.073A2.281,2.281,0,0,1,774.155,364.995Z" transform="translate(-471.767 -221.617)" fill="#f1f1f1"/>
    <path id="Trazado_144" data-name="Trazado 144" d="M740.718,225.528a2.061,2.061,0,0,1-.246.721,4.374,4.374,0,0,1-.472-.78A.861.861,0,0,1,740.718,225.528Z" transform="translate(-450.923 -136.852)" fill="#fafafa"/>
    <path id="Trazado_145" data-name="Trazado 145" d="M414.142,137.374a1.809,1.809,0,0,1-1.092-.073A1.809,1.809,0,0,1,414.142,137.374Z" transform="translate(-251.397 -83.046)" fill="#fafafa"/>
    <path id="Trazado_146" data-name="Trazado 146" d="M872.1,382.552a1.916,1.916,0,0,1,.112-.752,3.931,3.931,0,0,1,.615.7A.972.972,0,0,1,872.1,382.552Z" transform="translate(-531.535 -232.289)" fill="#f1f1f1"/>
    <path id="Trazado_147" data-name="Trazado 147" d="M89.655,55.236a1,1,0,0,1-.7.217A1,1,0,0,1,89.655,55.236Z" transform="translate(-53.613 -32.998)" fill="#f4f4f4"/>
    <path id="Trazado_148" data-name="Trazado 148" d="M93.673,55.066a1.07,1.07,0,0,1-.234.6,1.91,1.91,0,0,1-.4-.435A.866.866,0,0,1,93.673,55.066Z" transform="translate(-56.102 -32.894)" fill="#f4f4f4"/>
    <path id="Trazado_149" data-name="Trazado 149" d="M93.986,74.176a1.193,1.193,0,0,1-.451.7A1.193,1.193,0,0,1,93.986,74.176Z" transform="translate(-56.407 -44.556)" fill="#f4f4f4"/>
    <path id="Trazado_150" data-name="Trazado 150" d="M637.089,215.426a.937.937,0,0,1,.728.019A.937.937,0,0,1,637.089,215.426Z" transform="translate(-388.12 -130.717)" fill="#fafafa"/>
    <path id="Trazado_151" data-name="Trazado 151" d="M459.115,168.3a.89.89,0,0,1,.719.054A.89.89,0,0,1,459.115,168.3Z" transform="translate(-279.508 -101.964)" fill="#fafafa"/>
    <path id="Trazado_152" data-name="Trazado 152" d="M673.773,207.365a.906.906,0,0,1-.73-.013A.906.906,0,0,1,673.773,207.365Z" transform="translate(-410.062 -125.786)" fill="#fafafa"/>
    <path id="Trazado_153" data-name="Trazado 153" d="M827.056,279.3c.042-.241.19-.38.395-.663a1.12,1.12,0,0,1,.7.781A1.542,1.542,0,0,1,827.056,279.3Z" transform="translate(-504.05 -169.33)" fill="#f9f9f9"/>
    <path id="Trazado_154" data-name="Trazado 154" d="M115.839,77.144c.1-.116.291-.137.619-.157A.907.907,0,0,1,115.839,77.144Z" transform="translate(-70.019 -46.272)" fill="#f4f4f4"/>
    <path id="Trazado_155" data-name="Trazado 155" d="M892.646,266.839a.347.347,0,0,1,.175-.3C892.823,266.675,892.774,266.723,892.646,266.839Z" transform="translate(-544.077 -161.948)" fill="#fff"/>
    <path id="Trazado_156" data-name="Trazado 156" d="M804.486,271.889a.5.5,0,0,0-.123.075c.054.017.107.034.153-.02C804.508,271.873,804.494,271.9,804.486,271.889Z" transform="translate(-490.202 -165.214)" fill="#090909"/>
    <path id="Trazado_157" data-name="Trazado 157" d="M904.212,388.218c-.118-.127-.1-.249-.033-.55A.532.532,0,0,1,904.212,388.218Z" transform="translate(-551.084 -235.87)" fill="#f1f1f1"/>
    <path id="Trazado_158" data-name="Trazado 158" d="M884.256,385.395c-.051-.138.033-.222.233-.3C884.5,385.187,884.433,385.3,884.256,385.395Z" transform="translate(-538.949 -234.299)" fill="#f1f1f1"/>
    <path id="Trazado_159" data-name="Trazado 159" d="M117.218,182.419c-.079-.128-.024-.214.128-.317A.272.272,0,0,1,117.218,182.419Z" transform="translate(-70.838 -110.42)" fill="#f4f4f4"/>
    <path id="Trazado_160" data-name="Trazado 160" d="M165.313,843.1c-9.2,1.43-18.229,2.85-27.263,4.228-1.467.224-3.018.231-3.271-1.764-.237-1.868.962-2.4,2.592-2.642q21.443-3.212,42.873-6.511c14.8-2.276,29.583-4.6,44.378-6.881,10.571-1.626,21.15-3.2,31.726-4.8.128-.019.259-.027.386-.05,1.587-.292,2.834.2,3.009,1.89.16,1.545-.877,2.254-2.39,2.482q-17.687,2.673-35.364,5.414-18.834,2.9-37.668,5.8C178.044,841.221,171.762,842.139,165.313,843.1Z" transform="translate(-81.558 -502.515)" fill="#080808"/>
    <path id="Trazado_161" data-name="Trazado 161" d="M760.981,763.884c-16.711,2.47-33.252,4.922-49.794,7.368-1.282.19-2.583.279-3.851.536-1.641.333-2.883-.034-3.317-1.768-.33-1.32.843-2.416,2.67-2.666,4.816-.657,9.639-1.271,14.446-1.987q21.923-3.263,43.836-6.588c.385-.058.774-.087,1.159-.147,1.506-.234,2.669.244,2.87,1.84.2,1.566-.749,2.345-2.284,2.542C764.856,763.254,763.006,763.577,760.981,763.884Z" transform="translate(-428.932 -462.223)" fill="#080808"/>
    <path id="Trazado_162" data-name="Trazado 162" d="M485.748,812.66c2.216-.31,4.257-.641,6.308-.887,1.418-.17,2.481.412,2.615,1.917.131,1.465-.741,2.234-2.174,2.448q-8.72,1.3-17.436,2.628c-.255.038-.516.042-.773.073-1.512.179-2.64-.365-2.79-1.948-.136-1.439.727-2.226,2.185-2.435C477.652,813.889,481.613,813.272,485.748,812.66Z" transform="translate(-287.057 -494.67)" fill="#090909"/>
    <path id="Trazado_163" data-name="Trazado 163" d="M650.866,789.685a12.687,12.687,0,0,1,3.568-.687,3.3,3.3,0,0,1,2.281,1.55,1.837,1.837,0,0,1-1.369,2.582q-6.011,1.562-12.087,2.872a1.953,1.953,0,0,1-2.473-1.632,2.032,2.032,0,0,1,1.625-2.647C645.172,791.04,647.94,790.384,650.866,789.685Z" transform="translate(-390.334 -480.779)" fill="#0a0a0a"/>
    <path id="Trazado_164" data-name="Trazado 164" d="M246.2,732.019c2.376-.213,4.575-.4,6.77-.623,1.887-.193,3.188.511,3.211,1.931.027,1.693-1.082,2.385-2.621,2.523-8.726.781-17.454,1.538-26.178,2.332-11.176,1.018-22.348,2.083-33.525,3.092q-20.165,1.821-40.335,3.585c-7.235.646-14.466,1.326-21.7,1.953-.681.059-1.635.1-2.019-.285-.551-.557-1.142-1.713-.9-2.26a3.306,3.306,0,0,1,2.183-1.72c3.725-.517,7.482-.808,11.231-1.145,9.238-.831,18.48-1.63,27.718-2.464q14.156-1.277,28.308-2.594,23.065-2.106,46.131-4.2C244.984,732.1,245.5,732.067,246.2,732.019Z" transform="translate(-77.954 -445.616)" fill="#080808"/>
    <path id="Trazado_165" data-name="Trazado 165" d="M709.6,692.082c14.727-1.263,29.273-2.516,43.819-3.773,2.139-.185,3.322.461,3.363,1.967.048,1.747-1.1,2.346-2.628,2.474-9.7.812-19.4,1.607-29.1,2.439q-19.78,1.7-39.557,3.427c-1.034.089-2.075.106-3.113.135a2.017,2.017,0,0,1-2.374-1.991c-.077-1.471.8-2.249,2.251-2.378,4.137-.368,8.272-.754,12.411-1.1C699.586,692.867,704.5,692.486,709.6,692.082Z" transform="translate(-414.311 -419.323)" fill="#080808"/>
    <path id="Trazado_166" data-name="Trazado 166" d="M487.048,724.33c-5.234.685-10.307,1.331-15.378,2-1.888.248-3.143-.4-3.238-1.837-.114-1.738,1.074-2.4,2.538-2.6,4.3-.577,8.6-1.09,12.906-1.63.9-.113,1.8-.225,2.7-.353,1.543-.221,3.009-.109,3.261,1.787C490.079,723.537,488.826,724.174,487.048,724.33Z" transform="translate(-285.19 -438.576)" fill="#0a0a0a"/>
    <path id="Trazado_167" data-name="Trazado 167" d="M642.853,710.333c-.632.014-1.232.206-1.513-.012-.739-.574-1.827-1.305-1.858-2.014a2.754,2.754,0,0,1,1.618-2.162,76.577,76.577,0,0,1,8.532-.691,2.068,2.068,0,0,1,2.338,2.1,2.108,2.108,0,0,1-2.139,2.306C647.569,710.059,645.3,710.174,642.853,710.333Z" transform="translate(-389.58 -429.803)" fill="#0a0a0a"/>
    <path id="Trazado_168" data-name="Trazado 168" d="M249.246,546.832c-25.879-.5-51.563-1.006-77.248-1.5q-15.472-.3-30.944-.56c-.195,0-.39-.008-.584,0-1.551.032-2.721-.482-2.819-2.222-.083-1.468,1.012-2.288,2.982-2.253,4.994.089,9.988.229,14.982.325q32.885.628,65.769,1.243,15.859.3,31.718.644c.453.009,1.1-.133,1.322.105.686.723,1.635,1.589,1.657,2.42.016.61-1.2,1.654-1.987,1.8A26.583,26.583,0,0,1,249.246,546.832Z" transform="translate(-83.327 -329.011)" fill="#070707"/>
    <path id="Trazado_169" data-name="Trazado 169" d="M747.827,556.449c-21.8-.52-43.406-1.031-65.014-1.532-1.541-.036-2.76-.518-2.8-2.255-.043-1.809,1.211-2.249,2.754-2.216.26.005.52,0,.779,0q10.024.255,20.049.511,23.847.576,47.695,1.139a9.336,9.336,0,0,1,1.165.058,2.176,2.176,0,0,1-.153,4.34C750.875,556.537,749.446,556.477,747.827,556.449Z" transform="translate(-414.314 -335.207)" fill="#090909"/>
    <path id="Trazado_170" data-name="Trazado 170" d="M446.953,546.248c-1.732,0-2.717-.785-2.642-2.33.076-1.566,1.193-2.172,2.715-2.059,4.9.364,9.807.649,14.691,1.154a3.625,3.625,0,0,1,2.193,1.768c.241.407-.226,1.558-.713,1.983a3.223,3.223,0,0,1-2.146.538C456.4,547,451.762,546.616,446.953,546.248Z" transform="translate(-270.471 -329.96)" fill="#0a0a0a"/>
    <path id="Trazado_171" data-name="Trazado 171" d="M638.849,554.643c.766.034,1.518-.149,1.892.147.69.545,1.658,1.425,1.589,2.067-.083.777-1.085,2.03-1.753,2.073a79.563,79.563,0,0,1-10.106.006c-.672-.043-1.693-1.3-1.793-2.092-.161-1.273.807-2.15,2.2-2.171C633.475,554.634,636.07,554.65,638.849,554.643Z" transform="translate(-382.977 -337.754)" fill="#070707"/>
    <path id="Trazado_172" data-name="Trazado 172" d="M137.793,645.328c-2.4.109-4.6.21-6.8.322-1.524.078-2.792-.29-2.926-2.066-.136-1.8,1.063-2.342,2.605-2.4q11.968-.465,23.936-.92,37.846-1.484,75.691-2.973c6.552-.256,13.106-.475,19.658-.725,1.482-.057,2.595.378,2.764,2.03.146,1.422-.868,2.325-2.648,2.394q-31.04,1.192-62.081,2.375C171.321,644.007,154.653,644.671,137.793,645.328Z" transform="translate(-77.473 -387.76)" fill="#080808"/>
    <path id="Trazado_173" data-name="Trazado 173" d="M727.773,623.835c8.047-.047,15.9-.08,23.75-.152,1.569-.014,2.928.236,3.137,2.089.166,1.475-.994,2.321-3.1,2.336q-33.773.242-67.547.469c-1.038.007-2.076.049-3.114.044-1.449-.008-2.447-.707-2.441-2.184a2.124,2.124,0,0,1,2.41-2.214c2.92-.023,5.839-.068,8.759-.091C702.275,624.031,714.927,623.934,727.773,623.835Z" transform="translate(-413.364 -379.902)" fill="#070707"/>
    <path id="Trazado_174" data-name="Trazado 174" d="M469.857,638.1c-3.69,0-7.187-.036-10.683.019-1.619.025-2.785-.608-2.806-2.228-.022-1.668,1.2-2.219,2.791-2.2,4.726.043,9.454.036,14.18.009,1.494-.008,2.568.461,2.7,2.094.116,1.413-.929,2.279-2.688,2.306C472.253,638.111,471.152,638.1,469.857,638.1Z" transform="translate(-277.832 -386.006)" fill="#070707"/>
    <path id="Trazado_175" data-name="Trazado 175" d="M650.16,630.511c.2,2.244-.454,3.074-2.418,3.114-2.452.051-4.905.022-7.358.012-1.461-.006-2.571-.524-2.614-2.179s1.057-2.27,2.5-2.3c2.516-.053,5.04-.106,7.548.046C648.595,629.251,649.328,629.968,650.16,630.511Z" transform="translate(-388.535 -383.21)" fill="#0a0a0a"/>
    <path id="Trazado_176" data-name="Trazado 176" d="M122.261,432.941c-1.774-.122-2.818-.849-2.6-2.584.225-1.793,1.538-1.966,3.049-1.85,9.512.728,19.028,1.406,28.54,2.133q27.083,2.073,54.163,4.177c9.38.718,18.763,1.395,28.144,2.093.906.067,1.812.146,2.717.23,1.362.126,2.241.874,2.189,2.239a2.067,2.067,0,0,1-2.458,2.13c-3.886-.255-7.772-.512-11.654-.809q-14.463-1.1-28.923-2.241-22.516-1.74-45.032-3.468C141.076,434.285,131.753,433.631,122.261,432.941Z" transform="translate(-72.334 -260.775)" fill="#080808"/>
    <path id="Trazado_177" data-name="Trazado 177" d="M695.7,485.1c-2.572-.2-4.966-.371-7.356-.586-1.486-.134-2.543-.873-2.345-2.479.193-1.568,1.366-2.077,2.85-1.955q15.412,1.273,30.825,2.542,15.409,1.249,30.822,2.454c2.263.18,4.528.325,6.788.528,1.529.137,2.734.806,2.5,2.543-.223,1.685-1.483,2.049-3.044,1.922q-26.167-2.132-52.337-4.221C701.568,485.617,698.726,485.357,695.7,485.1Z" transform="translate(-417.956 -292.254)" fill="#080808"/>
    <path id="Trazado_178" data-name="Trazado 178" d="M630.415,476.281c-1.472-.124-2.766-.212-4.057-.327-1.429-.127-2.372-.871-2.285-2.35a2.108,2.108,0,0,1,2.54-2.062q7.373.489,14.742,1.04c1.5.112,2.488.881,2.341,2.488-.138,1.516-1.209,2.056-2.622,1.963C637.58,476.8,634.088,476.549,630.415,476.281Z" transform="translate(-380.174 -287.05)" fill="#090909"/>
    <path id="Trazado_179" data-name="Trazado 179" d="M446.681,452.181c1.663.132,3.146.248,4.628.379,1.518.135,2.51.934,2.332,2.492-.176,1.542-1.31,2.092-2.823,1.967-4.382-.36-8.766-.7-13.15-1.035-1.476-.114-2.485-.8-2.561-2.349-.069-1.386,1.1-2.2,2.88-2.082C440.825,451.74,443.662,451.963,446.681,452.181Z" transform="translate(-264.855 -274.85)" fill="#0a0a0a"/>
    <path id="Trazado_180" data-name="Trazado 180" d="M127.369,319.292c-2.473-.4-4.773-.807-7.083-1.148-1.534-.227-2.447-1.018-2.218-2.6.239-1.643,1.466-1.99,2.927-1.758q8.834,1.4,17.667,2.82,18.147,2.9,36.294,5.808c11.773,1.9,23.538,3.861,35.311,5.77q12.291,1.993,24.6,3.9c1.538.238,2.5.99,2.314,2.525-.188,1.568-1.38,2.085-2.878,1.852-6.087-.947-12.177-1.88-18.259-2.862-9.985-1.612-19.963-3.267-29.946-4.888q-18.044-2.93-36.093-5.831C142.514,321.685,135.025,320.505,127.369,319.292Z" transform="translate(-71.357 -190.745)" fill="#080808"/>
    <path id="Trazado_181" data-name="Trazado 181" d="M689.8,402.874c8.371,1.293,16.567,2.581,24.766,3.853q18.452,2.863,36.906,5.71c1.795.278,3.585.6,5.385.833,1.491.2,2.546.881,2.384,2.476-.177,1.745-1.47,2.139-3.009,1.9q-10.481-1.6-20.959-3.216-18.65-2.864-37.3-5.729c-3.139-.484-6.266-1.047-9.411-1.486-1.557-.217-2.718-.823-2.548-2.528.175-1.754,1.492-2.085,3.028-1.855C689.234,402.865,689.431,402.855,689.8,402.874Z" transform="translate(-417.967 -245.087)" fill="#080808"/>
    <path id="Trazado_182" data-name="Trazado 182" d="M629,393.6c2.428.263,4.676.542,6.931.758,1.528.146,2.5.855,2.35,2.455-.14,1.489-1.185,2.084-2.615,1.94-5.213-.525-10.429-1.034-15.633-1.642a2.063,2.063,0,0,1-1.965-2.436,1.986,1.986,0,0,1,2.446-1.879C623.289,393.038,626.057,393.323,629,393.6Z" transform="translate(-376.503 -238.991)" fill="#090909"/>
    <path id="Trazado_183" data-name="Trazado 183" d="M447.8,365.653c4.651.7,9.142,1.354,13.626,2.053,1.48.231,2.439,1.066,2.137,2.668s-1.444,1.949-2.94,1.71c-4.607-.733-9.224-1.409-13.834-2.128-1.914-.3-2.837-1.325-2.542-2.747C444.543,365.8,445.708,365.26,447.8,365.653Z" transform="translate(-270.405 -222.359)" fill="#0a0a0a"/>
    <path id="Trazado_184" data-name="Trazado 184" d="M205.163,232.912c-14.839-3.256-29.514-6.494-44.193-9.716q-18.8-4.127-37.6-8.231c-1.452-.319-2.689-1.008-2.316-2.75.356-1.66,1.558-1.946,3.147-1.595q21.157,4.673,42.33,9.269,36.542,8.01,73.081,16.038c.38.083.767.141,1.139.248a2.21,2.21,0,1,1-1.069,4.283c-4.617-1.015-9.244-1.981-13.861-2.993C218.988,235.967,212.158,234.447,205.163,232.912Z" transform="translate(-73.161 -127.742)" fill="#080808"/>
    <path id="Trazado_185" data-name="Trazado 185" d="M731.6,338.153q12.957,2.906,25.914,5.81c2.458.55,4.926,1.057,7.382,1.616,1.9.432,2.4,1.38,1.96,3.6.066.173.016.19.016.19-2.043,1.262-4.035.224-6.316-.2-.6-.1-.923-.14-1.248-.176q-16.2-3.63-32.4-7.255c-9.168-2.035-18.35-4.009-27.513-6.066a3.933,3.933,0,0,1-2.273-1.242,2.348,2.348,0,0,1,.054-2.279,3.64,3.64,0,0,1,2.707-.854c4.767.917,9.5,2.034,14.239,3.077,5.438,1.2,10.877,2.383,16.566,3.655A5.821,5.821,0,0,0,731.6,338.153Z" transform="translate(-424.594 -201.448)" fill="#080808"/>
    <path id="Trazado_186" data-name="Trazado 186" d="M628.655,319.889c3.147.622,6.125,1.243,9.115,1.8,1.577.3,2.572,1.075,2.232,2.767-.328,1.636-1.592,1.87-3.021,1.591-6.538-1.274-13.074-2.562-19.615-3.823-1.5-.29-2.424-1.082-2.134-2.66.3-1.619,1.538-1.95,2.981-1.679C621.641,318.533,625.065,319.2,628.655,319.889Z" transform="translate(-374.749 -193.235)" fill="#090909"/>
    <path id="Trazado_187" data-name="Trazado 187" d="M461.372,277.172c1.85.453,3.539.886,5.232,1.305,1.473.365,2.361,1.26,1.969,2.794-.384,1.5-1.516,1.921-3.033,1.535-6.382-1.625-12.774-3.21-19.163-4.808-1.436-.359-2.414-1.172-2.047-2.746.389-1.67,1.631-1.954,3.177-1.557C452.071,274.866,456.644,276,461.372,277.172Z" transform="translate(-270.439 -166.219)" fill="#0a0a0a"/>
    <path id="Trazado_188" data-name="Trazado 188" d="M857.12,377.022a1.933,1.933,0,0,1,1.075.021A1.933,1.933,0,0,1,857.12,377.022Z" transform="translate(-522.397 -229.332)" fill="#f1f1f1"/>
    <path id="Trazado_189" data-name="Trazado 189" d="M784.811,348.525a.952.952,0,0,1-.729.011A.952.952,0,0,1,784.811,348.525Z" transform="translate(-477.825 -211.942)" fill="#f1f1f1"/>
    <path id="Trazado_190" data-name="Trazado 190" d="M876.605,377.612a1.356,1.356,0,0,1,.271.169.469.469,0,0,1-.274-.058C876.549,377.656,876.6,377.638,876.605,377.612Z" transform="translate(-534.272 -229.733)" fill="#f1f1f1"/>
    <path id="Trazado_191" data-name="Trazado 191" d="M815.544,352.456Z" transform="translate(-497.023 -214.378)" fill="#f1f1f1"/>
    <path id="Trazado_192" data-name="Trazado 192" d="M134.009,106.509c13.974,3.489,27.8,6.913,41.617,10.363q30.047,7.5,60.087,15.034c.376.094.746.22,1.124.3,1.546.335,2.583,1.185,2.106,2.85-.47,1.639-1.82,1.81-3.32,1.434q-26.087-6.551-52.178-13.085-29.014-7.258-58.03-14.511c-.729-.183-1.682-.445-2.014-.987a2.772,2.772,0,0,1-.245-2.43,2.921,2.921,0,0,1,2.4-1.038C128.354,104.953,131.1,105.76,134.009,106.509Z" transform="translate(-74.369 -63.013)" fill="#080808"/>
    <path id="Trazado_193" data-name="Trazado 193" d="M443.081,182.609c5.5,1.329,10.849,2.631,16.194,3.932,1.876.457,2.765,1.51,2.425,2.875-.351,1.407-1.521,1.913-3.449,1.442-6.411-1.565-12.811-3.173-19.231-4.7-1.582-.376-2.541-1.152-2.168-2.813.4-1.768,1.819-1.8,3.257-1.5C441.054,182.05,441.983,182.335,443.081,182.609Z" transform="translate(-265.872 -110.179)" fill="#0a0a0a"/>
    <path id="Trazado_194" data-name="Trazado 194" d="M640,235.389c1.343.343,2.541.622,3.715.982a2.1,2.1,0,0,1,1.612,2.84,2.056,2.056,0,0,1-2.767,1.422q-8.338-2.178-16.675-4.355c-1.393-.365-2.194-1.274-1.833-2.708.424-1.687,1.778-1.909,3.248-1.528C631.482,233.126,635.659,234.252,640,235.389Z" transform="translate(-380.109 -140.799)" fill="#0a0a0a"/>
  </g>
</svg>
