<svg xmlns="http://www.w3.org/2000/svg" width="226.427" height="212.159" viewBox="0 0 226.427 212.159">
  <g id="Grupo_3" data-name="Grupo 3" transform="translate(-325 -608)">
    <g id="Grupo_2" data-name="Grupo 2">
      <g id="Rectángulo_10" data-name="Rectángulo 10" transform="matrix(0.695, 0.719, -0.719, 0.695, 440, 608)" fill="none" stroke="#000" stroke-linejoin="bevel" stroke-width="9">
        <rect width="148.098" height="152.056" stroke="none"/>
        <rect x="4.5" y="4.5" width="139.098" height="143.056" fill="none"/>
      </g>
      <g id="Trazado_2" data-name="Trazado 2" transform="translate(325 609)" fill="none">
        <path d="M0,0H226V209H0Z" stroke="none"/>
        <path d="M 12 12 L 12 197 L 214 197 L 214 12 L 12 12 M 0 0 L 226 0 L 226 209 L 0 209 L 0 0 Z" stroke="none" fill="#000"/>
      </g>
      <line id="Línea_1" data-name="Línea 1" x2="213" y2="195" transform="translate(332.5 615.5)" fill="none" stroke="#000" stroke-width="9"/>
      <line id="Línea_2" data-name="Línea 2" y1="193" x2="211" transform="translate(334.5 617.5)" fill="none" stroke="#000" stroke-width="9"/>
      <line id="Línea_3" data-name="Línea 3" y1="32" x2="33" transform="translate(361.5 615.5)" fill="none" stroke="#000" stroke-width="9"/>
      <line id="Línea_4" data-name="Línea 4" y1="32" x2="33" transform="translate(469.5 612.5)" fill="none" stroke="#000" stroke-width="9"/>
      <line id="Línea_5" data-name="Línea 5" x2="32.88" y2="28.608" transform="translate(330.62 660.892)" fill="none" stroke="#000" stroke-width="9"/>
      <path id="Trazado_3" data-name="Trazado 3" d="M0,0,14.9,14.322,32.88,31.608" transform="translate(330.62 753.892)" fill="none" stroke="#000" stroke-width="9"/>
      <line id="Línea_7" data-name="Línea 7" x2="35" y2="35.108" transform="translate(507.5 647.392)" fill="none" stroke="#000" stroke-width="9"/>
      <line id="Línea_8" data-name="Línea 8" x2="37.5" y2="32.108" transform="translate(511 734.392)" fill="none" stroke="#000" stroke-width="9"/>
      <line id="Línea_9" data-name="Línea 9" x1="19" y2="34" transform="translate(498 780)" fill="none" stroke="#000" stroke-width="9"/>
      <line id="Línea_10" data-name="Línea 10" y1="28" x2="26" transform="translate(378.5 782.5)" fill="none" stroke="#000" stroke-width="9"/>
      <line id="Línea_11" data-name="Línea 11" x1="52.5" y1="51" transform="translate(413 737.5)" fill="none" stroke="#000" stroke-width="9"/>
      <line id="Línea_12" data-name="Línea 12" y1="45" x2="46" transform="translate(465.5 689.5)" fill="none" stroke="#000" stroke-width="9"/>
      <line id="Línea_13" data-name="Línea 13" x1="52.5" y1="51" transform="translate(412 638.5)" fill="none" stroke="#000" stroke-width="9"/>
      <line id="Línea_14" data-name="Línea 14" x1="51" y2="48" transform="translate(361.5 689.5)" fill="none" stroke="#000" stroke-width="9"/>
    </g>
  </g>
</svg>
